<?xml version="1.0" encoding="utf-8"?>
<!-- Generator: Adobe Illustrator 16.2.0, SVG Export Plug-In . SVG Version: 6.00 Build 0)  -->
<!DOCTYPE svg PUBLIC "-//W3C//DTD SVG 1.1//EN" "http://www.w3.org/Graphics/SVG/1.1/DTD/svg11.dtd">
<svg version="1.1" id="Layer_1" xmlns="http://www.w3.org/2000/svg" xmlns:xlink="http://www.w3.org/1999/xlink" x="0px" y="0px"
	 width="152px" height="60px" preserveAspectRatio="xMinYMin slice" viewBox="0 0 152 60" enable-background="new 0 0 152 60" xml:space="preserve">
<g>
	<g>
		<rect fill-rule="evenodd" clip-rule="evenodd" fill="#201F5C" width="152" height="48"/>
		<g>
			<path fill-rule="evenodd" clip-rule="evenodd" fill="#FFFFFF" d="M62.52,17.67c-0.07,0.36-0.19,0.78-0.43,0.84h-0.37
				c-0.06,0-0.12,0.06-0.12,0.12s0.06,0.12,0.18,0.12c0.31,0,0.86-0.06,1.04-0.06c0.19,0,0.68,0.06,1.11,0.06
				c0.18,0,0.24-0.06,0.24-0.12s-0.06-0.12-0.12-0.12h-0.43c-0.18-0.06-0.37-0.18-0.37-0.36c0-0.18,0-0.3,0.06-0.48l0.55-4.2h0.07
				c0.36,0.78,0.98,2.1,1.1,2.34c0.12,0.3,0.98,1.92,1.22,2.4c0.19,0.3,0.25,0.48,0.37,0.48c0.06,0,0.13-0.06,0.37-0.54l2.33-4.8
				h0.06l0.67,4.62c0,0.3,0,0.42-0.06,0.48c-0.12,0-0.12,0.06-0.12,0.12s0.06,0.06,0.31,0.12c0.43,0,1.9,0.06,2.14,0.06
				c0.19,0,0.31-0.06,0.31-0.12s-0.06-0.12-0.18-0.12c-0.13,0-0.37,0-0.68-0.06c-0.31-0.12-0.43-0.42-0.49-1.08l-0.98-6.48
				c-0.06-0.18-0.12-0.3-0.18-0.3c-0.13,0-0.19,0.06-0.25,0.24l-2.94,6l-2.88-5.94c-0.19-0.24-0.25-0.3-0.31-0.3
				c-0.06,0-0.12,0.06-0.18,0.24L62.52,17.67z"/>
			<path fill-rule="evenodd" clip-rule="evenodd" fill="#FFFFFF" d="M74.77,15.69c0,1.02,0,1.86-0.06,2.28
				c-0.06,0.3-0.12,0.48-0.3,0.54h-0.43c-0.13,0-0.13,0.06-0.13,0.12s0.07,0.12,0.19,0.12c0.43,0,1.1-0.06,1.35-0.06
				c0.3,0,0.98,0.06,1.65,0.06c0.12,0,0.25-0.06,0.25-0.12s-0.06-0.12-0.19-0.12h-0.55c-0.3-0.06-0.43-0.24-0.43-0.54
				c-0.06-0.42-0.06-1.26-0.06-2.28v-1.86c0-1.56,0-1.86,0.06-2.22c0-0.36,0.06-0.54,0.37-0.6h0.31c0.12,0,0.18-0.06,0.18-0.12
				s-0.06-0.06-0.24-0.06h-1.29h-1.41c-0.12,0-0.25,0-0.25,0.06s0.06,0.12,0.19,0.12h0.37c0.24,0.06,0.36,0.24,0.36,0.6
				c0.06,0.36,0.06,0.66,0.06,2.22V15.69z"/>
			<path fill-rule="evenodd" clip-rule="evenodd" fill="#FFFFFF" d="M80.471,12.93h0.069c0.181,0.18,1.34,1.5,2.51,2.64
				c1.101,1.02,2.511,2.4,3.19,3.06c0.119,0.12,0.24,0.24,0.359,0.24c0.061,0,0.131-0.12,0.131-0.36l0.119-6.6
				c0-0.6,0.121-0.78,0.371-0.9h0.359c0.13,0,0.189-0.06,0.189-0.12s-0.119-0.06-0.25-0.06H86.48h-1.291c-0.18,0-0.299,0-0.299,0.06
				s0.06,0.12,0.18,0.12c0.119,0,0.369,0,0.55,0.06c0.25,0.12,0.37,0.3,0.37,0.96l0.119,4.68h-0.06c-0.18-0.18-1.649-1.68-2.39-2.4
				c-1.53-1.5-3.189-3.24-3.311-3.36c-0.18-0.18-0.24-0.3-0.369-0.3c-0.121,0-0.121,0.12-0.121,0.36l-0.119,6.18
				c0,0.9-0.061,1.2-0.311,1.32h-0.49c-0.119,0-0.18,0.06-0.18,0.12s0.12,0.12,0.24,0.12c0.561,0,1.05-0.06,1.17-0.06
				c0.18,0,0.609,0.06,1.28,0.06c0.19,0,0.25-0.06,0.25-0.12s-0.06-0.12-0.181-0.12c-0.129,0-0.369,0-0.56-0.06
				c-0.181-0.06-0.3-0.36-0.36-1.14L80.471,12.93z"/>
			<path fill-rule="evenodd" clip-rule="evenodd" fill="#FFFFFF" d="M90.59,15.69c0,1.02,0,1.86-0.061,2.28
				c-0.069,0.3-0.129,0.48-0.309,0.54H89.79c-0.12,0-0.12,0.06-0.12,0.12s0.061,0.12,0.18,0.12c0.43,0,1.101-0.06,1.351-0.06
				c0.31,0,0.979,0.06,1.649,0.06c0.131,0,0.25-0.06,0.25-0.12s-0.06-0.12-0.18-0.12h-0.561c-0.299-0.06-0.359-0.24-0.42-0.54
				c-0.069-0.42-0.069-1.26-0.069-2.28v-1.86c0-1.56,0-1.86,0.069-2.22c0-0.36,0.061-0.54,0.36-0.6h0.31
				c0.121,0,0.181-0.06,0.181-0.12s-0.06-0.06-0.24-0.06h-1.29h-1.35c-0.18,0-0.301,0-0.301,0.06s0.061,0.12,0.181,0.12h0.37
				c0.24,0.06,0.369,0.24,0.369,0.6c0.061,0.36,0.061,0.66,0.061,2.22V15.69z"/>
			<path fill-rule="evenodd" clip-rule="evenodd" fill="#FFFFFF" d="M96.779,18.87c0.611,0,1.16-0.12,1.711-0.42
				c0.8-0.48,1.05-1.2,1.05-1.86c0-0.96-0.49-1.68-1.78-2.64l-0.31-0.24c-0.86-0.66-1.101-1.02-1.101-1.5
				c0-0.6,0.43-1.08,1.221-1.08c0.74,0,1.05,0.3,1.17,0.54c0.24,0.24,0.31,0.6,0.31,0.66c0,0.12,0,0.18,0.12,0.18
				c0.061,0,0.12-0.06,0.12-0.3v-1.26c0-0.06-0.06-0.06-0.12-0.12c-0.311-0.06-0.74-0.18-1.41-0.18c-1.529,0-2.51,0.84-2.51,1.98
				c0,0.84,0.42,1.62,1.59,2.52l0.49,0.36c0.92,0.66,1.04,1.14,1.04,1.68s-0.431,1.2-1.41,1.2c-0.67,0-1.29-0.3-1.53-1.08
				c-0.06-0.18-0.119-0.42-0.119-0.54c0-0.06,0-0.18-0.061-0.18c-0.13,0-0.13,0.12-0.189,0.3v1.38c0,0.18,0,0.24,0.189,0.3
				C95.67,18.81,96.16,18.87,96.779,18.87z"/>
			<path fill-rule="evenodd" clip-rule="evenodd" fill="#FFFFFF" d="M103.891,15.69c0,0.96,0,1.8-0.061,2.22
				c0,0.3-0.07,0.54-0.311,0.6h-0.369c-0.121,0-0.18,0.06-0.18,0.12s0.059,0.12,0.239,0.12c0.431,0,1.11-0.06,1.351-0.06
				c0.31,0,0.979,0.06,1.66,0.06c0.119,0,0.18-0.06,0.18-0.12s0-0.12-0.121-0.12h-0.549c-0.311-0.06-0.431-0.3-0.431-0.6
				c-0.06-0.42-0.06-1.26-0.06-2.22v-4.32l1.34,0.06c0.98,0,1.23,0.3,1.29,0.6v0.12c0,0.12,0,0.18,0.12,0.18
				c0.07,0,0.07-0.06,0.07-0.18c0-0.24,0.06-0.96,0.06-1.2c0-0.18,0-0.24-0.13-0.24c-0.061,0-0.301,0.12-0.98,0.12h-4.23
				c-0.359,0-0.789,0-1.1-0.06c-0.24,0-0.369-0.12-0.43-0.12s-0.12,0.06-0.12,0.24c-0.06,0.06-0.25,1.02-0.25,1.2
				c0,0.12,0,0.12,0.07,0.12c0.12,0,0.12,0,0.12-0.12c0.06-0.06,0.119-0.18,0.18-0.36c0.189-0.24,0.43-0.3,1.04-0.3l1.601-0.06
				V15.69z"/>
			<path fill-rule="evenodd" clip-rule="evenodd" fill="#FFFFFF" d="M111.79,11.49c0-0.06,0-0.12,0.06-0.12
				c0.131-0.06,0.311-0.06,0.561-0.06c0.67,0,1.65,0.42,1.65,1.92c0,0.84-0.311,1.32-0.61,1.56c-0.19,0.12-0.37,0.18-0.8,0.18
				c-0.24,0-0.551-0.06-0.801-0.12c-0.06,0-0.06-0.06-0.06-0.18V11.49z M110.51,15.69c0,0.96,0,1.8-0.06,2.22
				c-0.07,0.3-0.07,0.54-0.31,0.6h-0.371c-0.119,0-0.18,0.06-0.18,0.12s0.061,0.12,0.18,0.12c0.431,0,1.101-0.06,1.351-0.06
				c0.12,0,0.92,0.06,1.53,0.06c0.189,0,0.25-0.06,0.25-0.12s-0.061-0.12-0.131-0.12h-0.549c-0.301-0.06-0.371-0.3-0.431-0.6v-2.22
				v-0.18c0-0.06,0-0.06,0.06-0.06h0.92c0.07,0,0.131,0,0.19,0.12c0.181,0.12,0.67,0.84,1.101,1.44c0.549,0.78,0.979,1.26,1.41,1.5
				c0.309,0.18,0.549,0.24,1.17,0.24h1.039c0.12,0,0.18-0.06,0.18-0.12s-0.06-0.12-0.119-0.12h-0.311
				c-0.18-0.06-0.609-0.12-1.22-0.72c-0.62-0.66-1.351-1.56-2.271-2.76c1.041-0.84,1.41-1.56,1.41-2.34c0-0.72-0.43-1.26-0.74-1.44
				c-0.609-0.36-1.279-0.42-1.959-0.42h-1.53h-1.47c-0.121,0-0.25,0-0.25,0.06s0.06,0.12,0.189,0.12h0.43
				c0.36,0.12,0.431,0.24,0.49,0.6v2.22V15.69z"/>
			<path fill-rule="evenodd" clip-rule="evenodd" fill="#FFFFFF" d="M120.01,16.89c0,0.12,0,0.6-0.06,1.02c0,0.3-0.13,0.54-0.31,0.6
				h-0.371c-0.119,0-0.18,0.06-0.18,0.12s0.061,0.12,0.24,0.12c0.37,0,1.04-0.06,1.35-0.06c0.25,0,0.92,0.06,1.59,0.06
				c0.19,0,0.25-0.06,0.25-0.12s-0.06-0.12-0.18-0.12h-0.561c-0.299-0.06-0.359-0.3-0.43-0.6v-1.02v-0.9c0-0.3,0-0.66,0.131-1.02
				c0.18-0.48,1.709-2.94,2.08-3.36c0.25-0.24,0.31-0.36,0.549-0.48c0.19-0.12,0.371-0.12,0.49-0.12c0.131,0,0.19-0.06,0.19-0.12
				s-0.06-0.06-0.19-0.06h-1.16h-0.979c-0.12,0-0.19,0-0.19,0.06s0.07,0.12,0.19,0.12c0.181,0.06,0.24,0.18,0.24,0.24
				c0,0.18-0.06,0.36-0.181,0.54c-0.119,0.36-1.47,2.64-1.59,2.88c-0.189-0.24-1.66-2.82-1.84-3.12c-0.061-0.12-0.13-0.24-0.13-0.36
				c0-0.06,0.069-0.18,0.19-0.18c0.119-0.06,0.24-0.06,0.24-0.12s-0.061-0.06-0.181-0.06h-1.16h-1.35c-0.13,0-0.19,0-0.19,0.06
				s0.061,0.12,0.19,0.12c0.12,0,0.3,0.06,0.43,0.12c0.181,0.12,0.49,0.36,0.729,0.78c0.371,0.54,1.841,2.82,1.9,3
				c0.12,0.3,0.25,0.54,0.25,1.08V16.89z"/>
			<path fill-rule="evenodd" clip-rule="evenodd" fill="#FFFFFF" d="M133.609,18.33c-2.02,0-3.31-1.74-3.31-3.9
				c0-2.58,1.41-3.24,2.64-3.24c1.781,0,3.19,1.44,3.19,3.78C136.13,17.97,134.35,18.33,133.609,18.33z M133.18,18.87
				c2.7,0,4.42-1.92,4.42-4.32c0-2.34-1.66-3.9-4.35-3.9c-3.189,0-4.42,2.34-4.42,4.14S130.12,18.87,133.18,18.87z"/>
			<path fill-rule="evenodd" clip-rule="evenodd" fill="#FFFFFF" d="M141.58,14.85c0-0.06,0.061-0.12,0.12-0.12
				c0.19,0,1.29,0,1.54,0.06c0.359,0,0.49,0.24,0.55,0.36s0.06,0.24,0.06,0.3c0,0.12,0.061,0.18,0.121,0.18
				c0.119,0,0.119-0.12,0.119-0.18v-0.78c0.061-0.36,0.131-0.6,0.131-0.66c0-0.06-0.07-0.12-0.07-0.12
				c-0.061,0-0.121,0.06-0.18,0.12c-0.061,0.12-0.24,0.18-0.431,0.18c-0.181,0.06-0.3,0.06-0.49,0.06h-1.35
				c-0.06,0-0.12-0.06-0.12-0.12v-2.58c0-0.12,0.061-0.18,0.12-0.18l1.659,0.06c0.371,0,0.611,0.12,0.67,0.3
				c0.061,0.12,0.061,0.3,0.061,0.36c0.061,0.12,0.061,0.18,0.131,0.18c0.059,0,0.119-0.06,0.119-0.12c0-0.12,0.061-0.78,0.061-0.84
				c0-0.3,0.06-0.42,0.06-0.48s0-0.12-0.06-0.12c-0.061,0-0.121,0.06-0.18,0.06c-0.131,0.06-0.25,0.06-0.431,0.06h-2.819h-1.531
				c-0.189,0-0.25,0-0.25,0.06s0.061,0.12,0.181,0.12h0.43c0.31,0.12,0.431,0.24,0.431,0.6v2.22v1.86v2.22
				c-0.061,0.3-0.121,0.54-0.371,0.6H139.5c-0.13,0-0.13,0.06-0.13,0.12s0.069,0.12,0.19,0.12c0.43,0,1.1-0.06,1.35-0.06
				c0.3,0,0.98,0.06,1.65,0.06c0.189,0,0.25-0.06,0.25-0.12s-0.061-0.12-0.19-0.12h-0.55c-0.311-0.06-0.37-0.3-0.43-0.6
				c-0.061-0.42-0.061-1.2-0.061-2.22V14.85z"/>
		</g>
		<path fill="#F99E41" d="M8.58,39.59h3.64c0,0,7.26-16.6,21.2-16.42c8.9,0.18,9.02,6.1,9.02,6.82c0,0.66,0.85,3.74-4.06,6.82
			c0,0,1.82-5.19-4.18-5.19c-2.78,0-5.14,2.11-5.14,5.01c0,3.08,3.33,4.28,6.42,4.16c5.57-0.24,14.66-3.74,14.78-12.61
			c0.12-8.33-8.91-10.2-13.81-10.14c-3.15,0.06-9.02-0.84-19.2,8.33c0,0,7.5-15.51,29.8-26.37H31.84C31.84,0,14.03,17.26,8.58,39.59
			z"/>
		<g>
			<path fill-rule="evenodd" clip-rule="evenodd" fill="#FFFFFF" d="M66.68,31.17c-0.06,0-0.12-0.061-0.12-0.12v-0.42
				c0-2.88,0-3.36,0.06-4.02c0-0.66,0.19-0.96,0.68-1.02c0.24-0.06,0.43-0.06,0.61-0.06c0.18,0,0.31-0.06,0.31-0.18
				s-0.13-0.18-0.37-0.18c-0.8,0-1.96,0.06-2.45,0.06c-0.49,0-1.72-0.06-2.76-0.06c-0.31,0-0.43,0.06-0.43,0.18s0.12,0.18,0.37,0.18
				c0.24,0,0.55,0,0.73,0.06c0.62,0.12,0.8,0.42,0.8,1.02c0.06,0.66,0.06,1.14,0.06,4.02v3.3c0,1.74,0,3.24-0.12,4.021
				c-0.06,0.54-0.12,0.96-0.55,1.021c-0.19,0.059-0.37,0.119-0.68,0.119c-0.24,0-0.3,0.061-0.3,0.12c0,0.12,0.12,0.181,0.36,0.181
				c0.8,0,2.03-0.061,2.46-0.061c0.55,0,1.71,0.061,3,0.061c0.24,0,0.37-0.061,0.37-0.181c0-0.06-0.06-0.12-0.31-0.12
				c-0.31,0-0.74-0.061-0.98-0.119c-0.55-0.061-0.67-0.48-0.74-0.961c-0.12-0.84-0.12-2.34-0.12-4.08v-1.619
				c0-0.121,0.06-0.121,0.12-0.121h7.36c0.06,0,0.12,0,0.12,0.121v1.619c0,1.74,0,3.24-0.12,4.021c-0.06,0.54-0.12,0.96-0.55,1.021
				c-0.19,0.059-0.37,0.119-0.68,0.119c-0.24,0-0.3,0.061-0.3,0.12c0,0.12,0.12,0.181,0.43,0.181c0.73,0,1.96-0.061,2.39-0.061
				c0.55,0,1.71,0.061,3,0.061c0.24,0,0.37-0.061,0.37-0.181c0-0.06-0.06-0.12-0.31-0.12c-0.311,0-0.74-0.061-0.98-0.119
				c-0.55-0.061-0.67-0.48-0.74-0.961c-0.12-0.84-0.12-2.34-0.12-4.08v-3.3c0-2.88,0-3.36,0.06-4.02c0.06-0.66,0.19-0.96,0.68-1.02
				c0.239-0.06,0.431-0.06,0.61-0.06s0.31-0.06,0.31-0.18s-0.13-0.18-0.37-0.18c-0.8,0-1.96,0.06-2.45,0.06
				c-0.49,0-1.72-0.06-2.76-0.06c-0.31,0-0.43,0.06-0.43,0.18s0.12,0.18,0.37,0.18c0.24,0,0.55,0,0.73,0.06
				c0.62,0.12,0.8,0.42,0.8,1.02c0.06,0.66,0.06,1.14,0.06,4.02v0.42c0,0.06-0.06,0.12-0.12,0.12H66.68z"/>
			<path fill-rule="evenodd" clip-rule="evenodd" fill="#FFFFFF" d="M82.189,33.93c0,1.74,0,3.24-0.06,4.021
				c-0.06,0.54-0.18,0.96-0.55,1.021c-0.189,0.059-0.43,0.119-0.74,0.119c-0.18,0-0.3,0.061-0.3,0.12c0,0.12,0.181,0.181,0.42,0.181
				c0.74,0,1.97-0.061,2.39-0.061c1.17,0,2.461,0.12,5.34,0.12c0.73,0,0.92,0,1.041-0.479c0.119-0.361,0.24-1.621,0.24-2.101
				c0-0.181,0-0.3-0.121-0.3c-0.119,0-0.18,0.06-0.24,0.24C89.48,37.59,89.24,38.01,88.75,38.25c-0.49,0.18-1.29,0.18-1.779,0.18
				c-1.961,0-2.271-0.24-2.33-1.56v-2.94V32.49c0-0.12,0-0.24,0.119-0.24c0.43,0,2.33,0.061,2.7,0.061
				c0.74,0.119,0.979,0.359,1.101,0.779c0.069,0.24,0.069,0.48,0.069,0.66c0,0.061,0.06,0.18,0.181,0.18
				c0.18,0,0.18-0.24,0.18-0.359c0-0.12,0.07-0.9,0.07-1.26c0.06-0.961,0.18-1.261,0.18-1.38c0-0.12-0.061-0.18-0.18-0.18
				c-0.07,0-0.131,0.12-0.311,0.24c-0.12,0.18-0.43,0.24-0.92,0.3c-0.43,0.06-2.641,0.06-3.07,0.06c-0.119,0-0.119-0.119-0.119-0.24
				V26.37c0-0.12,0.06-0.18,0.119-0.18c0.37,0,2.391,0,2.76,0.06c0.92,0.12,1.17,0.36,1.291,0.66c0.06,0.24,0.119,0.54,0.119,0.66
				c0,0.18,0,0.3,0.131,0.3c0.18,0,0.18-0.12,0.239-0.24c0-0.18,0.06-1.02,0.06-1.2c0.061-0.9,0.19-1.14,0.19-1.26
				c0-0.06-0.069-0.18-0.13-0.18c-0.12,0-0.24,0.06-0.3,0.12c-0.19,0-0.49,0.06-0.86,0.12H83.48c-0.551,0-1.78-0.06-2.76-0.06
				c-0.311,0-0.431,0.06-0.431,0.18s0.12,0.18,0.31,0.18c0.24,0,0.61,0,0.73,0.06c0.68,0.12,0.8,0.42,0.859,1.02v4.02V33.93z"/>
			<path fill-rule="evenodd" clip-rule="evenodd" fill="#FFFFFF" d="M94.88,33.57c-0.13,0-0.13-0.061-0.13-0.12l1.779-4.68
				c0.061-0.06,0.061-0.18,0.121-0.18c0.07,0,0.07,0.12,0.129,0.18l1.711,4.68c0,0.06,0,0.12-0.12,0.12H94.88z M98.74,34.471
				c0.119,0,0.18,0.059,0.24,0.18l1.539,3.959c0.061,0.24-0.069,0.42-0.189,0.42c-0.18,0.061-0.24,0.061-0.24,0.181
				s0.18,0.12,0.551,0.181h3.609c0.74,0,0.92,0,0.92-0.181c0-0.12-0.12-0.12-0.24-0.12c-0.25,0-0.55-0.061-0.859-0.119
				c-0.37-0.061-0.92-0.301-1.65-2.041c-1.23-2.82-4.359-10.56-4.779-11.58c-0.19-0.42-0.311-0.6-0.49-0.6
				c-0.19,0-0.311,0.24-0.561,0.78l-4.84,11.82c-0.37,0.961-0.73,1.561-1.59,1.68c-0.189,0-0.43,0.061-0.61,0.061
				c-0.13,0-0.25,0-0.25,0.12c0,0.181,0.12,0.181,0.37,0.181c1.04,0,2.08-0.061,2.27-0.061c0.61,0,1.471,0.061,2.08,0.061
				c0.181,0,0.311,0,0.311-0.181c0-0.12-0.07-0.12-0.311-0.12h-0.31c-0.55,0-0.729-0.24-0.729-0.6c0-0.24,0.06-0.66,0.299-1.141
				l1.051-2.699c0-0.121,0.061-0.18,0.12-0.18H98.74z"/>
			<path fill-rule="evenodd" clip-rule="evenodd" fill="#FFFFFF" d="M108.91,30.63c0-2.88,0-3.36,0.061-4.02
				c0-0.66,0.189-0.96,0.68-1.02c0.24-0.06,0.55-0.06,0.8-0.06c0.18,0,0.3-0.06,0.3-0.18s-0.12-0.18-0.37-0.18
				c-0.79,0-2.2,0.06-2.63,0.06c-0.55,0-1.721-0.06-2.641-0.06c-0.299,0-0.43,0.06-0.43,0.18s0.131,0.18,0.311,0.18
				c0.25,0,0.49,0,0.67,0.06c0.619,0.12,0.8,0.42,0.8,1.02c0.06,0.66,0.06,1.14,0.06,4.02v3.3c0,1.74,0,3.24-0.119,4.021
				c-0.061,0.54-0.18,0.96-0.551,1.021c-0.189,0.059-0.43,0.119-0.68,0.119c-0.24,0-0.3,0.061-0.3,0.12
				c0,0.12,0.12,0.181,0.37,0.181c0.789,0,1.96-0.061,2.449-0.061c1.531,0,2.82,0.12,5.57,0.12c0.99,0,1.11-0.06,1.23-0.479
				c0.119-0.541,0.31-1.98,0.31-2.16c0-0.24-0.06-0.36-0.19-0.36c-0.18,0-0.18,0.12-0.18,0.3c-0.06,0.359-0.31,0.9-0.55,1.141
				c-0.43,0.479-1.229,0.539-2.21,0.539c-1.529,0-2.02-0.119-2.33-0.42c-0.43-0.359-0.43-1.619-0.43-4.08V30.63z"/>
			<path fill-rule="evenodd" clip-rule="evenodd" fill="#FFFFFF" d="M119.15,33.93c0,1.74,0,3.24-0.121,4.021
				c-0.069,0.54-0.189,0.96-0.559,1.021c-0.181,0.059-0.421,0.119-0.671,0.119c-0.239,0-0.31,0.061-0.31,0.12
				c0,0.12,0.13,0.181,0.369,0.181c0.74,0,1.961-0.061,2.391-0.061c0.55,0,1.779,0.061,3.07,0.061c0.18,0,0.359-0.061,0.359-0.181
				c0-0.06-0.119-0.12-0.3-0.12c-0.31,0-0.739-0.061-0.979-0.119c-0.621-0.061-0.74-0.48-0.801-0.961
				c-0.06-0.84-0.06-2.34-0.06-4.08v-7.68h2.39c1.721,0.06,2.271,0.6,2.271,1.08l0.06,0.24c0,0.24,0.061,0.36,0.18,0.36
				c0.121,0,0.19-0.12,0.19-0.3c0-0.48,0.06-1.8,0.06-2.22c0-0.24,0-0.36-0.189-0.36c-0.12,0-0.609,0.18-1.84,0.18h-7.6
				c-0.61,0-1.34-0.06-1.9-0.12c-0.49,0-0.67-0.18-0.85-0.18c-0.131,0-0.19,0.06-0.25,0.36c0,0.12-0.371,1.86-0.371,2.16
				c0,0.18,0,0.3,0.131,0.3c0.119,0,0.18-0.12,0.24-0.24c0.06-0.18,0.119-0.36,0.31-0.66c0.3-0.42,0.79-0.54,1.899-0.54l2.881-0.06
				V33.93z"/>
			<path fill-rule="evenodd" clip-rule="evenodd" fill="#FFFFFF" d="M132.08,31.17c-0.061,0-0.12-0.061-0.12-0.12v-0.42
				c0-2.88,0-3.36,0.06-4.02c0-0.66,0.181-0.96,0.67-1.02c0.25-0.06,0.431-0.06,0.561-0.06c0.24,0,0.359-0.06,0.359-0.18
				s-0.119-0.18-0.359-0.18c-0.8,0-2.029,0.06-2.46,0.06c-0.55,0-1.71-0.06-2.75-0.06c-0.31,0-0.431,0.06-0.431,0.18
				s0.121,0.18,0.301,0.18c0.311,0,0.619,0,0.8,0.06c0.61,0.12,0.8,0.42,0.8,1.02c0.061,0.66,0.061,1.14,0.061,4.02v3.3
				c0,1.74,0,3.24-0.12,4.021c-0.07,0.54-0.19,0.96-0.56,1.021c-0.181,0.059-0.361,0.119-0.67,0.119c-0.25,0-0.311,0.061-0.311,0.12
				c0,0.12,0.13,0.181,0.369,0.181c0.801,0,1.961-0.061,2.451-0.061s1.72,0.061,3.01,0.061c0.18,0,0.359-0.061,0.359-0.181
				c0-0.06-0.119-0.12-0.3-0.12c-0.31,0-0.739-0.061-0.979-0.119c-0.62-0.061-0.68-0.48-0.74-0.961c-0.12-0.84-0.12-2.34-0.12-4.08
				v-1.619c0-0.121,0.06-0.121,0.12-0.121h7.359c0.061,0,0.121,0,0.121,0.121v1.619c0,1.74,0,3.24-0.121,4.021
				c-0.069,0.54-0.189,0.96-0.56,1.021c-0.18,0.059-0.36,0.119-0.67,0.119c-0.25,0-0.31,0.061-0.31,0.12
				c0,0.12,0.129,0.181,0.369,0.181c0.801,0,1.961-0.061,2.451-0.061c0.489,0,1.719,0.061,3.01,0.061
				c0.18,0,0.359-0.061,0.359-0.181c0-0.06-0.119-0.12-0.3-0.12c-0.31,0-0.74-0.061-0.979-0.119c-0.621-0.061-0.681-0.48-0.74-0.961
				c-0.12-0.84-0.12-2.34-0.12-4.08v-3.3c0-2.88,0-3.36,0.06-4.02c0-0.66,0.18-0.96,0.67-1.02c0.25-0.06,0.43-0.06,0.561-0.06
				c0.24,0,0.359-0.06,0.359-0.18s-0.119-0.18-0.359-0.18c-0.801,0-2.03,0.06-2.461,0.06c-0.549,0-1.709-0.06-2.75-0.06
				c-0.309,0-0.43,0.06-0.43,0.18s0.121,0.18,0.301,0.18c0.31,0,0.619,0,0.8,0.06c0.61,0.12,0.8,0.42,0.8,1.02
				c0.061,0.66,0.061,1.14,0.061,4.02v0.42c0,0.06-0.061,0.12-0.121,0.12H132.08z"/>
		</g>
		<path fill-rule="evenodd" clip-rule="evenodd" fill="#201F5C" d="M71.01,54.43c0-0.18-0.06-0.24-0.12-0.24
			c0,0-0.06,0.061-0.06,0.121l-2.2,4.66l-2.32-4.66c0-0.061-0.06-0.121-0.12-0.121c0,0-0.06,0.061-0.06,0.181l-0.55,4.78
			c0,0.31-0.06,0.609-0.31,0.609c-0.06,0.061-0.12,0.061-0.18,0.061h-0.12c0,0.06,0.06,0.119,0.18,0.119c0.18,0,0.55-0.06,0.61-0.06
			c0.06,0,0.43,0.06,0.67,0.06c0.13,0,0.13-0.06,0.13-0.119h-0.07c0,0-0.12,0-0.24-0.061c-0.12,0-0.18-0.119-0.18-0.24V59.15
			l0.3-3.45c0.06,0.25,0.92,2,0.98,2.12c0.06,0.119,0.67,1.39,0.91,1.76c0.13,0.24,0.13,0.3,0.19,0.3c0.06,0,0.12-0.06,0.24-0.36
			l1.83-3.879h0.06l0.37,3.819c0,0.181,0,0.3-0.06,0.3s-0.06,0-0.06,0.061c0,0,0.06,0.06,0.24,0.06c0.25,0,1.04,0.06,1.22,0.06
			c0.13,0,0.19-0.06,0.19-0.119h-0.06c-0.13,0-0.31,0-0.49-0.061c-0.37-0.119-0.37-0.55-0.43-0.789L71.01,54.43z"/>
		<path fill-rule="evenodd" clip-rule="evenodd" fill="#201F5C" d="M74.8,57.46c-0.06,0-0.06,0-0.06-0.06l0.67-2
			c0.06-0.121,0.06-0.121,0.12,0l0.67,2c0.06,0.06,0.06,0.06,0,0.06H74.8z M73.7,59.09c-0.12,0.37-0.25,0.67-0.61,0.73H72.9
			c-0.06,0-0.06,0-0.06,0.06c0,0,0,0.06,0.13,0.06c0.36,0,0.73-0.06,0.85-0.06c0.06,0,0.37,0.06,0.55,0.06
			c0.06,0,0.12-0.06,0.12-0.06c0-0.06,0-0.06-0.06-0.06h-0.06c-0.18,0-0.3-0.061-0.3-0.24c0-0.12,0.06-0.311,0.12-0.49l0.42-1.33
			l0.07-0.06h1.58c0.06,0,0.06,0.06,0.13,0.06l0.67,1.82c0.06,0.12,0,0.18-0.061,0.24h-0.07c0,0.06,0.13,0.06,0.25,0.06
			c0.49,0.06,1.041,0.06,1.16,0.06c0.12,0,0.18-0.06,0.18-0.06c0-0.06-0.06-0.06-0.119-0.06c-0.061,0-0.18,0-0.24-0.061
			c-0.189-0.06-0.43-0.18-0.68-0.789c-0.42-1.15-1.641-4.23-1.71-4.48c-0.12-0.24-0.12-0.301-0.18-0.301s-0.06,0.061-0.18,0.301
			L73.7,59.09z"/>
		<path fill-rule="evenodd" clip-rule="evenodd" fill="#201F5C" d="M80.109,55.34c0.181,0.301,1.041,1.21,1.891,2.12
			c0.8,0.851,1.9,1.931,1.96,2.06c0.42,0.36,0.479,0.42,0.55,0.42c0.061,0,0.061,0,0.061-0.479l0.06-4.36c0-0.42,0-0.609,0.24-0.67
			h0.18c0.07,0,0.07-0.06,0.07-0.06c0-0.06,0-0.06-0.13-0.06h-0.61h-0.79c-0.061,0-0.119,0-0.119,0.06c0,0,0,0.06,0.059,0.06H83.9
			c0.18,0.061,0.24,0.25,0.24,0.73l0.119,3.75c-0.24-0.24-1.039-1.15-1.83-1.939c-1.1-1.211-2.26-2.421-2.32-2.541
			c-0.119-0.06-0.239-0.24-0.31-0.24c-0.06,0-0.06,0.121-0.06,0.431v4.229c0,0.67-0.061,0.851-0.24,0.91
			c-0.12,0.061-0.25,0.061-0.311,0.061c0,0-0.06,0-0.06,0.06c0,0,0.06,0.06,0.12,0.06c0.37,0,0.68-0.06,0.74-0.06
			c0.06,0,0.359,0.06,0.789,0.06c0.061,0,0.121-0.06,0.121-0.06c0-0.06,0-0.06-0.061-0.06s-0.24,0-0.359-0.061
			c-0.19-0.06-0.311-0.24-0.311-0.85L80.109,55.34z"/>
		<path fill-rule="evenodd" clip-rule="evenodd" fill="#201F5C" d="M87.859,57.46V57.4l0.681-2c0-0.121,0.06-0.121,0.06,0l0.73,2
			v0.06H87.859z M86.83,59.09c-0.13,0.37-0.311,0.67-0.609,0.73h-0.25c0,0-0.061,0-0.061,0.06c0,0,0.061,0.06,0.18,0.06
			c0.311,0,0.74-0.06,0.801-0.06c0.119,0,0.42,0.06,0.609,0.06c0.061,0,0.12-0.06,0.12-0.06c0-0.06-0.06-0.06-0.12-0.06h-0.061
			c-0.129,0-0.25-0.061-0.25-0.24c0-0.12,0-0.311,0.061-0.49l0.49-1.33c0,0,0-0.06,0.06-0.06h1.591c0.06,0,0.06,0.06,0.06,0.06
			l0.729,1.82c0,0.12,0,0.18-0.06,0.24h-0.06c0,0.06,0.06,0.06,0.25,0.06c0.479,0.06,1.029,0.06,1.16,0.06
			c0.059,0,0.119-0.06,0.119-0.06c0-0.06,0-0.06-0.061-0.06c-0.059,0-0.189,0-0.309-0.061c-0.121-0.06-0.361-0.18-0.611-0.789
			c-0.489-1.15-1.649-4.23-1.77-4.48c-0.061-0.24-0.119-0.301-0.119-0.301c-0.061,0-0.121,0.061-0.181,0.301L86.83,59.09z"/>
		<path fill-rule="evenodd" clip-rule="evenodd" fill="#201F5C" d="M94.15,54.62l0.92,0.06c0.729,0,0.91,0.18,0.91,0.36l0.06,0.12
			c0,0.061,0,0.119,0.069,0.119V55.16c0-0.061,0.061-0.61,0.061-0.79c0-0.06,0-0.12-0.061-0.12c-0.069,0-0.25,0.061-0.739,0.061
			h-2.81H92.02c-0.25,0-0.31-0.121-0.369-0.121c0,0-0.061,0.121-0.061,0.181S91.4,55.04,91.4,55.1c0,0.061,0.07,0.121,0.07,0.121
			s0.059-0.061,0.059-0.121c0-0.06,0.061-0.06,0.121-0.18c0.119-0.18,0.3-0.24,0.789-0.24l1.101-0.06v3.14c0,0.73,0,1.27-0.06,1.631
			c0,0.189-0.061,0.369-0.181,0.369c-0.06,0.061-0.19,0.061-0.25,0.061s-0.06,0-0.06,0.06c0,0,0.06,0.06,0.119,0.06
			c0.25,0,0.681-0.06,0.74-0.06c0.061,0,0.49,0.06,0.91,0.06c0.061,0,0.131-0.06,0.131-0.06c0-0.06,0-0.06-0.07-0.06
			c-0.061,0-0.24,0-0.36-0.061c-0.19,0-0.25-0.18-0.25-0.369c-0.06-0.361-0.06-0.9-0.06-1.631V54.62z"/>
		<path fill-rule="evenodd" clip-rule="evenodd" fill="#201F5C" d="M97.689,57.52c0,1.09,0.311,1.631,0.681,2
			C98.85,60,99.65,60,99.891,60c0.43,0,0.979-0.061,1.529-0.54c0.609-0.489,0.67-1.399,0.67-2.181V56.49c0-1.15,0-1.391,0.061-1.631
			c0-0.239,0.06-0.369,0.25-0.43h0.18c0.061,0,0.061,0,0.061-0.06s0-0.06-0.121-0.06h-0.609h-0.801c-0.06,0-0.119,0-0.119,0.06
			s0,0.06,0.06,0.06h0.25c0.24,0.061,0.3,0.19,0.3,0.43c0.061,0.24,0.061,0.48,0.061,1.631v0.91c0,0.72-0.12,1.39-0.43,1.81
			c-0.301,0.31-0.73,0.55-1.221,0.55c-0.42,0-0.73-0.06-1.1-0.43c-0.301-0.301-0.54-0.78-0.54-1.811V56.49v-1.631
			c0-0.239,0.06-0.369,0.239-0.43h0.24c0,0,0.061,0,0.061-0.06s-0.061-0.06-0.12-0.06H98h-0.859c-0.061,0-0.121,0-0.121,0.06
			s0.061,0.06,0.061,0.06h0.311c0.239,0.061,0.299,0.19,0.299,0.43v1.631V57.52z"/>
		<path fill-rule="evenodd" clip-rule="evenodd" fill="#201F5C" d="M112.1,56.49v-1.631c0-0.239,0.061-0.369,0.25-0.43h0.18
			c0.061,0,0.061,0,0.061-0.06s0-0.06-0.119-0.06h-0.73h-0.801c-0.119,0-0.119,0-0.119,0.06s0,0.06,0.06,0.06h0.25
			c0.24,0.061,0.3,0.19,0.3,0.43v1.631v0.119v0.061h-3.17c-0.06,0-0.06,0-0.06-0.061V56.49v-1.631c0.06-0.239,0.12-0.369,0.3-0.43
			h0.18c0,0,0.061,0,0.061-0.06s-0.061-0.06-0.12-0.06h-0.729h-0.861c-0.059,0-0.119,0-0.119,0.06s0.061,0.06,0.061,0.06h0.25
			c0.239,0.061,0.299,0.19,0.359,0.43v1.631v1.27c0,0.73,0,1.27-0.061,1.631c0,0.189-0.06,0.369-0.18,0.369
			c-0.061,0.061-0.18,0.061-0.24,0.061c-0.07,0-0.07,0-0.07,0.06c0,0,0.07,0.06,0.131,0.06c0.24,0,0.67-0.06,0.73-0.06
			c0.06,0,0.489,0.06,0.92,0.06c0.06,0,0.119-0.06,0.119-0.06c0-0.06,0-0.06-0.06-0.06s-0.25,0-0.37-0.061
			c-0.18,0-0.24-0.18-0.24-0.369c-0.06-0.361-0.06-0.9-0.06-1.631v-0.789h0.06h3.17v0.789v1.631c-0.06,0.189-0.06,0.369-0.24,0.369
			c-0.06,0.061-0.129,0.061-0.189,0.061s-0.061,0-0.061,0.06c0,0,0,0.06,0.061,0.06c0.25,0,0.74-0.06,0.74-0.06
			c0.06,0,0.55,0.06,0.97,0.06c0.06,0,0.06-0.06,0.06-0.06v-0.06c-0.119,0-0.24,0-0.359-0.061c-0.25,0-0.25-0.18-0.311-0.369V57.76
			V56.49z"/>
		<path fill-rule="evenodd" clip-rule="evenodd" fill="#201F5C" d="M115.58,57.46c-0.061,0-0.061,0-0.061-0.06l0.67-2
			c0.061-0.121,0.061-0.121,0.131,0l0.729,2c0,0.06,0,0.06-0.06,0.06H115.58z M114.54,59.09c-0.181,0.37-0.3,0.67-0.67,0.73h-0.181
			c-0.06,0-0.06,0-0.06,0.06c0,0,0,0.06,0.12,0.06c0.37,0,0.79-0.06,0.859-0.06c0.061,0,0.361,0.06,0.551,0.06
			c0.119,0,0.119-0.06,0.119-0.06c0-0.06,0-0.06-0.059-0.06h-0.061c-0.131,0-0.311-0.061-0.311-0.24c0-0.12,0.061-0.311,0.121-0.49
			l0.43-1.33l0.06-0.06h1.649l0.061,0.06l0.67,1.82c0.061,0.12,0,0.18-0.061,0.24c0,0.06,0.061,0.06,0.181,0.06
			c0.55,0.06,1.101,0.06,1.16,0.06c0.13,0,0.19-0.06,0.19-0.06c0-0.06-0.061-0.06-0.061-0.06c-0.13,0-0.189,0-0.311-0.061
			c-0.18-0.06-0.369-0.18-0.67-0.789c-0.43-1.15-1.59-4.23-1.709-4.48c-0.121-0.24-0.121-0.301-0.181-0.301s-0.06,0.061-0.19,0.301
			L114.54,59.09z"/>
		<path fill-rule="evenodd" clip-rule="evenodd" fill="#201F5C" d="M120.35,57.52c0,1.09,0.301,1.631,0.67,2
			C121.51,60,122.3,60,122.54,60c0.431,0,0.979-0.061,1.53-0.54c0.609-0.489,0.67-1.399,0.67-2.181V56.49v-1.631
			c0.06-0.239,0.119-0.369,0.31-0.43h0.181c0.06,0,0.06,0,0.06-0.06s-0.06-0.06-0.12-0.06h-0.609h-0.801c-0.06,0-0.119,0-0.119,0.06
			s0,0.06,0.06,0.06h0.25c0.239,0.061,0.3,0.19,0.3,0.43c0.061,0.24,0.061,0.48,0.061,1.631v0.91c0,0.72-0.121,1.39-0.48,1.81
			c-0.25,0.31-0.68,0.55-1.16,0.55c-0.43,0-0.74-0.06-1.1-0.43c-0.311-0.301-0.551-0.78-0.551-1.811V56.49v-1.631
			c0-0.239,0.061-0.369,0.24-0.43h0.18c0.07,0,0.07,0,0.07-0.06s0-0.06-0.13-0.06h-0.729H119.8c-0.069,0-0.13,0-0.13,0.06
			s0.061,0.06,0.061,0.06h0.25c0.299,0.061,0.299,0.19,0.369,0.43v1.631V57.52z"/>
		<path fill-rule="evenodd" clip-rule="evenodd" fill="#201F5C" d="M127.24,56.91c0-1.631,0.92-2.42,2.199-2.42
			c1.16,0,2.261,0.91,2.261,2.73c0,2.109-1.4,2.539-2.07,2.539C128.279,59.76,127.24,58.609,127.24,56.91z M126.51,57.1
			c0,1.33,0.86,2.9,2.93,2.9c1.771,0,2.99-1.33,2.99-3.029c0-1.691-1.279-2.781-2.99-2.781C127.43,54.189,126.51,55.891,126.51,57.1
			z"/>
		<path fill-rule="evenodd" clip-rule="evenodd" fill="#201F5C" d="M135,54.68c0-0.06,0-0.06,0.061-0.06
			c0.06-0.07,0.239-0.07,0.489-0.07c0.79,0,1.28,0.55,1.28,1.46c0,0.6-0.18,0.961-0.43,1.15c-0.18,0.119-0.42,0.18-0.551,0.18
			c-0.359,0-0.67-0.061-0.789-0.119C135,57.16,135,57.16,135,57.1V54.68z M134.391,57.76c0,0.73,0,1.27-0.061,1.631
			c0,0.189-0.061,0.369-0.189,0.369c-0.061,0.061-0.181,0.061-0.24,0.061c0,0-0.061,0-0.061,0.06c0,0,0.061,0.06,0.12,0.06
			c0.24,0,0.729-0.06,0.729-0.06s0.49,0.06,0.92,0.06c0.061,0,0.121-0.06,0.121-0.06c0-0.06-0.061-0.06-0.061-0.06
			c-0.061,0-0.24,0-0.37-0.061c-0.18,0-0.239-0.18-0.3-0.369V57.76v-0.18c0,0,0-0.061,0.061-0.061h0.92l0.06,0.061
			c0.181,0.18,0.55,0.73,0.851,1.09c0.43,0.54,0.67,0.91,0.979,1.09c0.18,0.12,0.36,0.18,0.79,0.18h0.55
			c0.12,0,0.181-0.06,0.181-0.06c0-0.06-0.061-0.06-0.061-0.06c-0.061,0-0.18,0-0.301-0.061c-0.189,0-0.489-0.06-0.92-0.49
			c-0.43-0.479-0.909-1.149-1.52-1.93c0.67-0.609,0.85-1.15,0.85-1.699c0-0.48-0.299-0.841-0.489-1.021
			c-0.36-0.25-0.91-0.31-1.341-0.31h-0.92h-0.85c-0.061,0-0.119,0-0.119,0.06s0.059,0.06,0.059,0.06h0.301
			c0.25,0.061,0.311,0.19,0.311,0.43v1.631V57.76z"/>
		<path fill-rule="evenodd" clip-rule="evenodd" fill="#201F5C" d="M140.92,57.46c-0.061,0-0.061,0-0.061-0.06l0.67-2
			c0.061-0.121,0.061-0.121,0.121,0l0.68,2v0.06H140.92z M139.82,59.09c-0.12,0.37-0.24,0.67-0.61,0.73h-0.181
			c-0.059,0-0.119,0-0.119,0.06c0,0,0.061,0.06,0.18,0.06c0.37,0,0.73-0.06,0.85-0.06c0.07,0,0.371,0.06,0.551,0.06
			c0.06,0,0.13-0.06,0.13-0.06c0-0.06,0-0.06-0.07-0.06h-0.06c-0.18,0-0.301-0.061-0.301-0.24c0-0.12,0.061-0.311,0.121-0.49
			l0.43-1.33l0.06-0.06h1.591c0.06,0,0.06,0.06,0.119,0.06l0.67,1.82c0.061,0.12,0,0.18-0.06,0.24h-0.06
			c0,0.06,0.119,0.06,0.239,0.06c0.49,0.06,1.04,0.06,1.16,0.06s0.19-0.06,0.19-0.06c0-0.06-0.07-0.06-0.131-0.06
			c-0.06,0-0.18,0-0.24-0.061c-0.18-0.06-0.43-0.18-0.67-0.789c-0.43-1.15-1.649-4.23-1.709-4.48
			c-0.121-0.24-0.121-0.301-0.19-0.301c-0.06,0-0.06,0.061-0.181,0.301L139.82,59.09z"/>
		<rect x="98.061" y="51.6" fill-rule="evenodd" clip-rule="evenodd" fill="#201F5C" width="3.68" height="1.2"/>
	</g>
</g>
</svg>
