<?xml version="1.0" encoding="UTF-8" standalone="no"?>
<!-- Created with Inkscape (http://www.inkscape.org/) -->

<svg
   xmlns:dc="http://purl.org/dc/elements/1.1/"
   xmlns:cc="http://creativecommons.org/ns#"
   xmlns:rdf="http://www.w3.org/1999/02/22-rdf-syntax-ns#"
   xmlns:svg="http://www.w3.org/2000/svg"
   xmlns="http://www.w3.org/2000/svg"
   xmlns:sodipodi="http://sodipodi.sourceforge.net/DTD/sodipodi-0.dtd"
   xmlns:inkscape="http://www.inkscape.org/namespaces/inkscape"
   width="150"
   height="70"
   viewBox="0 0 150.00004 70.000006"
   id="svg23821"
   version="1.1"
   inkscape:version="0.91 r13725"
   sodipodi:docname="HealthNZ-logo.svg">
  <defs
     id="defs23823">
    <clipPath
       id="clip17">
      <path
         inkscape:connector-curvature="0"
         d="m 33,28.4375 32,0 L 65,60 33,60 Z m 0,0"
         id="path1516" />
    </clipPath>
    <clipPath
       id="clip18">
      <path
         inkscape:connector-curvature="0"
         d="m 72,68 7,0 0,5.15625 -7,0 z m 0,0"
         id="path1519" />
    </clipPath>
    <clipPath
       id="clip19">
      <path
         inkscape:connector-curvature="0"
         d="m 78,68 6,0 0,5.15625 -6,0 z m 0,0"
         id="path1522" />
    </clipPath>
    <clipPath
       id="clip20">
      <path
         inkscape:connector-curvature="0"
         d="m 83,68 6,0 0,5.15625 -6,0 z m 0,0"
         id="path1525" />
    </clipPath>
    <clipPath
       id="clip21">
      <path
         inkscape:connector-curvature="0"
         d="m 88,68 6,0 0,5.15625 -6,0 z m 0,0"
         id="path1528" />
    </clipPath>
    <clipPath
       id="clip22">
      <path
         inkscape:connector-curvature="0"
         d="m 92,68 5,0 0,5.15625 -5,0 z m 0,0"
         id="path1531" />
    </clipPath>
    <clipPath
       id="clip23">
      <path
         inkscape:connector-curvature="0"
         d="m 97,68 6,0 0,5.15625 -6,0 z m 0,0"
         id="path1534" />
    </clipPath>
    <clipPath
       id="clip24">
      <path
         inkscape:connector-curvature="0"
         d="m 104,68 6,0 0,5.15625 -6,0 z m 0,0"
         id="path1537" />
    </clipPath>
    <clipPath
       id="clip25">
      <path
         inkscape:connector-curvature="0"
         d="m 109,68 6,0 0,5.15625 -6,0 z m 0,0"
         id="path1540" />
    </clipPath>
    <clipPath
       id="clip26">
      <path
         inkscape:connector-curvature="0"
         d="m 114,68 6,0 0,5.15625 -6,0 z m 0,0"
         id="path1543" />
    </clipPath>
    <clipPath
       id="clip27">
      <path
         inkscape:connector-curvature="0"
         d="m 120,68 5,0 0,5.15625 -5,0 z m 0,0"
         id="path1546" />
    </clipPath>
    <clipPath
       id="clip28">
      <path
         inkscape:connector-curvature="0"
         d="m 125,68 5,0 0,5.15625 -5,0 z m 0,0"
         id="path1549" />
    </clipPath>
    <clipPath
       id="clip29">
      <path
         inkscape:connector-curvature="0"
         d="m 129,68 6,0 0,5.15625 -6,0 z m 0,0"
         id="path1552" />
    </clipPath>
  </defs>
  <sodipodi:namedview
     id="base"
     pagecolor="#ffffff"
     bordercolor="#666666"
     borderopacity="1.0"
     inkscape:pageopacity="0.0"
     inkscape:pageshadow="2"
     inkscape:zoom="4.9"
     inkscape:cx="48.616189"
     inkscape:cy="79.664095"
     inkscape:document-units="px"
     inkscape:current-layer="layer1"
     showgrid="false"
     units="px"
     width="51mm"
     inkscape:window-width="2560"
     inkscape:window-height="1411"
     inkscape:window-x="1920"
     inkscape:window-y="0"
     inkscape:window-maximized="1" />
  <metadata
     id="metadata23826">
    <rdf:RDF>
      <cc:Work
         rdf:about="">
        <dc:format>image/svg+xml</dc:format>
        <dc:type
           rdf:resource="http://purl.org/dc/dcmitype/StillImage" />
        <dc:title></dc:title>
      </cc:Work>
    </rdf:RDF>
  </metadata>
  <g
     inkscape:label="Layer 1"
     inkscape:groupmode="layer"
     id="layer1"
     transform="translate(0,-982.36166)">
    <g
       transform="matrix(1.25,0,0,1.2499999,-29.841289,953.86313)"
       id="g23696">
      <path
         style="fill:#211e1e;fill-opacity:1;fill-rule:nonzero;stroke:none"
         d="m 28.335938,64.21875 111.074222,0 0,-35.777344 -111.074222,0 z m 0,0"
         id="path2213"
         inkscape:connector-curvature="0" />
      <g
         clip-path="url(#clip17)"
         id="g2215"
         style="clip-rule:nonzero">
        <path
           style="fill:#ffffff;fill-opacity:1;fill-rule:nonzero;stroke:none"
           d="m 33.269531,58.460938 2.652344,0 c 4.269531,-9.332032 11.082031,-12.476563 15.867187,-12.453126 4.863282,0.02734 6.636719,2.894532 6.65625,5.355469 0.02734,3.722657 -3.535156,5.230469 -3.535156,5.230469 0,0 0.570313,-0.210938 0.546875,-1.664062 -0.03125,-1.566407 -1.121093,-2.1875 -2.9375,-2.1875 -1.695312,0 -3.898437,1.347656 -3.875,3.355468 0.02344,1.898438 1.246094,3.300782 3.949219,3.300782 5.097656,0 11.492188,-3.558594 11.476562,-8.871094 -0.01562,-4.808594 -4.144531,-8.046875 -9.140624,-8.273438 -9.707032,-0.4375 -15.621094,7.03125 -15.621094,7.03125 6.75,-13.007812 22.933594,-20.84375 22.933594,-20.84375 l -11.277344,0 c 0,0 -13.761719,13.074219 -17.695313,30.019532"
           id="path2217"
           inkscape:connector-curvature="0" />
      </g>
      <path
         style="fill:#ffffff;fill-opacity:1;fill-rule:nonzero;stroke:none"
         d="m 73.375,40.957031 c -0.04297,0.28125 -0.105469,0.605469 -0.339844,0.65625 -0.125,0.02344 -0.183594,0.02344 -0.25,0.02344 -0.08203,0 -0.132812,0.01953 -0.132812,0.05859 0,0.07422 0.06641,0.09375 0.148437,0.09375 0.265625,0 0.667969,-0.02734 0.824219,-0.02734 0.148438,0 0.523438,0.02734 0.875,0.02734 0.125,0 0.199219,-0.01953 0.199219,-0.09375 0,-0.03906 -0.05859,-0.05859 -0.125,-0.05859 -0.08203,0 -0.199219,-0.0078 -0.351563,-0.03906 -0.140625,-0.03516 -0.25,-0.109375 -0.25,-0.265625 0,-0.136719 0.01172,-0.242187 0.02734,-0.394531 l 0.433594,-3.308594 0.03125,0 c 0.292968,0.625 0.792968,1.671875 0.867187,1.84375 0.09766,0.234375 0.753907,1.507813 0.957031,1.890625 0.132813,0.25 0.214844,0.417969 0.289063,0.417969 0.07422,0 0.117187,-0.07813 0.308594,-0.46875 l 1.8125,-3.777344 0.03516,0 0.5,3.660156 c 0.03125,0.234376 0.0078,0.34375 -0.04297,0.359376 -0.05859,0.02344 -0.08984,0.05078 -0.08984,0.09375 0,0.04687 0.05078,0.07422 0.238282,0.08984 0.335937,0.02344 1.484375,0.05078 1.691406,0.05078 0.117188,0 0.214844,-0.02734 0.214844,-0.09375 0,-0.04687 -0.05859,-0.05859 -0.132813,-0.05859 -0.109375,0 -0.273437,-0.0078 -0.515625,-0.08203 -0.25,-0.07422 -0.332031,-0.316407 -0.40625,-0.839844 l -0.757812,-5.140625 c -0.02734,-0.175781 -0.07813,-0.257813 -0.148438,-0.257813 -0.07813,0 -0.125,0.06641 -0.183594,0.199219 l -2.265624,4.75 -2.269532,-4.691406 c -0.109375,-0.21875 -0.160156,-0.257813 -0.226562,-0.257813 -0.06641,0 -0.117188,0.07422 -0.140625,0.214844 z m 0,0"
         id="path2219"
         inkscape:connector-curvature="0" />
      <path
         style="fill:#ffffff;fill-opacity:1;fill-rule:nonzero;stroke:none"
         d="m 82.628906,39.375 c 0,0.808594 0,1.464844 -0.04297,1.8125 -0.02344,0.242188 -0.07422,0.382812 -0.242188,0.417969 -0.07422,0.01563 -0.175781,0.03125 -0.300781,0.03125 -0.09766,0 -0.132813,0.02734 -0.132813,0.07031 0,0.05469 0.0625,0.08203 0.167969,0.08203 0.332031,0 0.859375,-0.02734 1.050781,-0.02734 0.222656,0 0.746094,0.02734 1.296875,0.02734 0.08984,0 0.15625,-0.02734 0.15625,-0.08203 0,-0.04297 -0.03906,-0.07031 -0.132812,-0.07031 -0.125,0 -0.308594,-0.01563 -0.421875,-0.03125 -0.25,-0.03516 -0.308594,-0.183594 -0.335938,-0.40625 -0.03125,-0.359375 -0.03125,-1.015625 -0.03125,-1.824219 l 0,-1.464844 c 0,-1.265625 0,-1.496094 0.01563,-1.761718 0.01563,-0.292969 0.08203,-0.433594 0.308594,-0.476563 0.101563,-0.01563 0.164063,-0.02344 0.25,-0.02344 0.08203,0 0.132813,-0.01953 0.132813,-0.08203 0,-0.05078 -0.06641,-0.07031 -0.175782,-0.07031 -0.316406,0 -0.804687,0.02734 -1.015625,0.02734 -0.238281,0 -0.765625,-0.02734 -1.082031,-0.02734 -0.132812,0 -0.199219,0.01953 -0.199219,0.07031 0,0.0625 0.05078,0.08203 0.132813,0.08203 0.101562,0 0.210937,0.0078 0.300781,0.03125 0.183594,0.04297 0.265625,0.183593 0.285156,0.46875 0.01563,0.265624 0.01563,0.496093 0.01563,1.761718 z m 0,0"
         id="path2221"
         inkscape:connector-curvature="0" />
      <path
         style="fill:#ffffff;fill-opacity:1;fill-rule:nonzero;stroke:none"
         d="m 86.824219,37.160156 0.02344,0 c 0.148438,0.160156 1.074219,1.199219 1.980469,2.097656 0.863281,0.859376 1.925781,1.949219 2.453125,2.449219 0.08984,0.08984 0.191406,0.179688 0.28125,0.179688 0.07422,0 0.109375,-0.07422 0.109375,-0.257813 l 0.08984,-5.25 c 0.0078,-0.464844 0.07422,-0.640625 0.308593,-0.707031 0.101563,-0.02344 0.164063,-0.02344 0.25,-0.02344 0.09766,0 0.148438,-0.02734 0.148438,-0.07422 0,-0.06641 -0.08203,-0.07813 -0.191406,-0.07813 -0.40625,0 -0.722656,0.02734 -0.816406,0.02734 -0.171876,0 -0.574219,-0.02734 -1.003907,-0.02734 -0.125,0 -0.214843,0.01172 -0.214843,0.07813 0,0.04687 0.03125,0.07422 0.128906,0.07422 0.117187,0 0.320312,0 0.441406,0.05078 0.199219,0.08203 0.277344,0.238281 0.285156,0.746093 l 0.08203,3.738282 -0.04297,0 C 90.996094,40.046875 89.875,38.851562 89.308594,38.285156 c -1.214844,-1.207031 -2.476563,-2.5625 -2.578125,-2.671875 -0.140625,-0.148437 -0.214844,-0.257812 -0.308594,-0.257812 -0.08594,0 -0.109375,0.117187 -0.109375,0.285156 l -0.07422,4.925781 c -0.0078,0.722656 -0.04297,0.964844 -0.257812,1.03125 -0.117188,0.03125 -0.265625,0.03906 -0.375,0.03906 -0.08203,0 -0.132813,0.01953 -0.132813,0.07031 0,0.07031 0.07422,0.08203 0.183594,0.08203 0.433594,0 0.824219,-0.02734 0.898438,-0.02734 0.160156,0 0.492187,0.02734 1.035156,0.02734 0.113281,0 0.191406,-0.01953 0.191406,-0.08203 -0.0039,-0.05078 -0.05469,-0.07031 -0.144531,-0.07031 -0.136719,0 -0.292969,-0.0078 -0.433594,-0.05469 -0.167969,-0.05859 -0.273437,-0.277343 -0.292969,-0.925781 z m 0,0"
         id="path2223"
         inkscape:connector-curvature="0" />
      <path
         style="fill:#ffffff;fill-opacity:1;fill-rule:nonzero;stroke:none"
         d="m 94.378906,39.375 c 0,0.808594 0,1.464844 -0.03906,1.8125 -0.02734,0.242188 -0.07422,0.382812 -0.242188,0.417969 -0.07422,0.01563 -0.175781,0.03125 -0.300781,0.03125 -0.101563,0 -0.132813,0.02734 -0.132813,0.07031 0,0.05469 0.05859,0.08203 0.167969,0.08203 0.332031,0 0.855469,-0.02734 1.046875,-0.02734 0.226563,0 0.75,0.02734 1.296875,0.02734 0.09375,0 0.160157,-0.02734 0.160157,-0.08203 0,-0.04297 -0.04297,-0.07031 -0.132813,-0.07031 -0.125,0 -0.308594,-0.01563 -0.425781,-0.03125 -0.25,-0.03516 -0.308594,-0.183594 -0.332032,-0.40625 -0.03516,-0.359375 -0.03516,-1.015625 -0.03516,-1.824219 l 0,-1.464844 c 0,-1.265625 0,-1.496094 0.01953,-1.761718 0.01562,-0.292969 0.08203,-0.433594 0.304687,-0.476563 0.101563,-0.01563 0.167969,-0.02344 0.25,-0.02344 0.08594,0 0.136719,-0.01953 0.136719,-0.08203 0,-0.05078 -0.07031,-0.07031 -0.175782,-0.07031 -0.316406,0 -0.808593,0.02734 -1.015624,0.02734 -0.242188,0 -0.765626,-0.02734 -1.082032,-0.02734 -0.132812,0 -0.199218,0.01953 -0.199218,0.07031 0,0.0625 0.04687,0.08203 0.132812,0.08203 0.101562,0 0.207031,0.0078 0.296875,0.03125 0.1875,0.04297 0.269531,0.183593 0.285156,0.46875 0.01563,0.265624 0.01563,0.496093 0.01563,1.761718 z m 0,0"
         id="path2225"
         inkscape:connector-curvature="0" />
      <path
         style="fill:#ffffff;fill-opacity:1;fill-rule:nonzero;stroke:none"
         d="m 98.953125,41.90625 c 0.441406,0 0.910156,-0.07813 1.324215,-0.34375 0.60157,-0.390625 0.78125,-0.964844 0.78125,-1.449219 0,-0.789062 -0.36328,-1.34375 -1.363278,-2.121093 l -0.234374,-0.171876 c -0.6875,-0.523437 -0.878907,-0.816406 -0.878907,-1.199218 0,-0.5 0.371094,-0.855469 0.988281,-0.855469 0.539068,0 0.781248,0.25 0.906248,0.40625 0.17578,0.214844 0.21875,0.472656 0.21875,0.550781 0,0.09766 0.0234,0.148438 0.082,0.148438 0.0664,0 0.0898,-0.06641 0.0898,-0.25 0,-0.648438 0.0352,-0.890625 0.0352,-1 0,-0.05469 -0.043,-0.08203 -0.11718,-0.09766 -0.21485,-0.05859 -0.56641,-0.140626 -1.105472,-0.140626 -1.15625,0 -1.921876,0.65625 -1.921876,1.570313 0,0.675781 0.316407,1.257813 1.230469,1.972656 l 0.382813,0.300781 c 0.691406,0.53125 0.816406,0.921876 0.816406,1.328126 0,0.441406 -0.367188,0.949218 -1.117188,0.949218 -0.515624,0 -1.007812,-0.222656 -1.1875,-0.839844 -0.04297,-0.140624 -0.07422,-0.316406 -0.07422,-0.425781 0,-0.0625 -0.01172,-0.140625 -0.08594,-0.140625 -0.06641,0 -0.08984,0.09375 -0.09766,0.21875 -0.01172,0.132813 -0.04297,0.632813 -0.04297,1.089844 0,0.183594 0.02344,0.222656 0.15625,0.28125 0.359375,0.160156 0.734375,0.21875 1.214844,0.21875"
         id="path2227"
         inkscape:connector-curvature="0" />
      <path
         style="fill:#ffffff;fill-opacity:1;fill-rule:nonzero;stroke:none"
         d="m 104.20313,39.375 c 0,0.765625 0,1.421875 -0.043,1.773438 -0.0234,0.238281 -0.0742,0.421874 -0.24219,0.457031 -0.0742,0.01563 -0.17578,0.03125 -0.30078,0.03125 -0.0977,0 -0.13281,0.02734 -0.13281,0.07031 0,0.05469 0.0586,0.08203 0.16796,0.08203 0.33204,0 0.85547,-0.02734 1.04688,-0.02734 0.23437,0 0.75781,0.02734 1.30859,0.02734 0.0898,0 0.15625,-0.02734 0.15625,-0.08203 0,-0.04297 -0.0391,-0.07031 -0.13281,-0.07031 -0.125,0 -0.30859,-0.01563 -0.42187,-0.03125 -0.25,-0.03516 -0.30079,-0.21875 -0.32422,-0.449219 -0.043,-0.359375 -0.043,-1.015625 -0.043,-1.78125 l 0,-3.410156 1.04687,0.02344 c 0.74219,0.01563 0.96485,0.25 0.98047,0.46875 l 0.0117,0.08984 c 0.008,0.125 0.0234,0.167969 0.0898,0.167969 0.0508,0 0.0664,-0.05469 0.0742,-0.136719 0,-0.214844 0.0273,-0.789063 0.0273,-0.964844 0,-0.125 -0.008,-0.171875 -0.0664,-0.171875 -0.0664,0 -0.26953,0.08203 -0.80078,0.08203 l -3.29297,0 c -0.27734,0 -0.59375,-0.01563 -0.83203,-0.04297 -0.21094,-0.01563 -0.29297,-0.09766 -0.35938,-0.09766 -0.0508,0 -0.0742,0.04688 -0.10156,0.15625 -0.0156,0.06641 -0.17187,0.824219 -0.17187,0.957032 0,0.09375 0.0156,0.132812 0.0742,0.132812 0.0508,0 0.0742,-0.03125 0.0898,-0.09766 0.0195,-0.06641 0.0586,-0.167969 0.14453,-0.292969 0.125,-0.183593 0.32422,-0.226562 0.80469,-0.242187 l 1.24219,-0.03125 z m 0,0"
         id="path2229"
         inkscape:connector-curvature="0" />
      <path
         style="fill:#ffffff;fill-opacity:1;fill-rule:nonzero;stroke:none"
         d="m 109.05859,39.375 c 0,0.765625 0,1.421875 -0.0391,1.773438 -0.0352,0.238281 -0.0781,0.421874 -0.24219,0.457031 -0.0742,0.01563 -0.17578,0.03125 -0.30078,0.03125 -0.0977,0 -0.13281,0.02734 -0.13281,0.07031 0,0.05469 0.0586,0.08203 0.16797,0.08203 0.33203,0 0.85547,-0.02734 1.01562,-0.02734 0.125,0 0.73829,0.02734 1.22266,0.02734 0.10547,0 0.16406,-0.02734 0.16406,-0.08203 0,-0.04297 -0.0312,-0.07031 -0.0977,-0.07031 -0.10157,0 -0.28516,-0.01563 -0.41016,-0.03125 -0.25,-0.03516 -0.30078,-0.21875 -0.32422,-0.457031 -0.0391,-0.351563 -0.0391,-1.007813 -0.0391,-1.78125 l 0,-0.117188 c 0,-0.05078 0.0234,-0.06641 0.0625,-0.06641 l 0.72656,0.01563 c 0.0586,0 0.10938,0.01172 0.14844,0.05859 0.10937,0.125 0.49219,0.691407 0.82422,1.148438 0.46484,0.640625 0.78125,1.03125 1.14062,1.222656 0.21485,0.117188 0.42578,0.160156 0.89063,0.160156 l 0.78906,0 c 0.10156,0 0.16016,-0.01953 0.16016,-0.08203 0,-0.04297 -0.0352,-0.07031 -0.10157,-0.07031 -0.0664,0 -0.14062,-0.0078 -0.23046,-0.02344 -0.12891,-0.02344 -0.46875,-0.08203 -0.9336,-0.566406 -0.49219,-0.515625 -1.0664,-1.257813 -1.80469,-2.1875 0.83985,-0.683594 1.09766,-1.246094 1.09766,-1.863281 0,-0.558594 -0.33203,-0.984375 -0.56641,-1.140625 -0.44921,-0.308594 -1.00781,-0.359375 -1.53125,-0.359375 -0.25781,0 -0.89062,0.02734 -1.17187,0.02734 -0.17578,0 -0.69922,-0.02734 -1.14063,-0.02734 -0.125,0 -0.18359,0.01953 -0.18359,0.07813 0,0.05469 0.0508,0.07422 0.14063,0.07422 0.11718,0 0.25781,0.0078 0.32421,0.02344 0.27735,0.05859 0.34375,0.191406 0.35938,0.476563 0.0156,0.265624 0.0156,0.496093 0.0156,1.761718 z m 0.98438,-3.335938 c 0,-0.06641 0.0156,-0.101562 0.0742,-0.117187 0.082,-0.02344 0.23047,-0.03125 0.4414,-0.03125 0.48829,0 1.27344,0.339844 1.27344,1.519531 0,0.683594 -0.24219,1.066406 -0.49219,1.25 -0.15234,0.109375 -0.25781,0.140625 -0.58984,0.140625 -0.21094,0 -0.45703,-0.02344 -0.63281,-0.08203 -0.0586,-0.02734 -0.0742,-0.05859 -0.0742,-0.152344 z m 0,0"
         id="path2231"
         inkscape:connector-curvature="0" />
      <path
         style="fill:#ffffff;fill-opacity:1;fill-rule:nonzero;stroke:none"
         d="m 116.16406,40.316406 c 0,0.132813 0,0.480469 -0.0234,0.832032 -0.0195,0.242187 -0.0937,0.421874 -0.26172,0.457031 -0.0742,0.01563 -0.17188,0.03125 -0.28907,0.03125 -0.0898,0 -0.13281,0.02734 -0.13281,0.06641 0,0.07031 0.0664,0.08594 0.1836,0.08594 0.30468,0 0.83203,-0.02734 1.03906,-0.02734 0.22265,0 0.75,0.02734 1.27344,0.02734 0.10546,0 0.17578,-0.02734 0.17578,-0.08594 0,-0.03906 -0.043,-0.06641 -0.13282,-0.06641 -0.11718,0 -0.30078,-0.01563 -0.41796,-0.03125 -0.25,-0.03516 -0.32422,-0.214844 -0.33985,-0.457031 -0.0273,-0.351563 -0.0273,-0.699219 -0.0273,-0.832032 l 0,-0.683594 c 0,-0.273437 0,-0.53125 0.125,-0.832031 0.15234,-0.359375 1.3164,-2.3125 1.58984,-2.644531 0.1836,-0.226562 0.27344,-0.324219 0.44922,-0.410156 0.125,-0.06641 0.28516,-0.09766 0.36719,-0.09766 0.0898,0 0.15625,-0.02734 0.15625,-0.08594 0,-0.04687 -0.0586,-0.0625 -0.14844,-0.0625 -0.16016,0 -0.70703,0.02344 -0.89062,0.02344 -0.24219,0 -0.50782,-0.02344 -0.78125,-0.02344 -0.10157,0 -0.14063,0.01563 -0.14063,0.07422 0,0.04687 0.0742,0.06641 0.14844,0.08203 0.14062,0.03125 0.17578,0.125 0.17578,0.207031 0,0.109375 -0.0352,0.25 -0.11719,0.433594 -0.11719,0.257813 -1.16406,2.089844 -1.25,2.289063 -0.13281,-0.234376 -1.29687,-2.238282 -1.41406,-2.488282 -0.0586,-0.117187 -0.0977,-0.21875 -0.0977,-0.285156 0,-0.06641 0.0391,-0.132812 0.11719,-0.148438 0.125,-0.03125 0.17969,-0.04297 0.17969,-0.08984 0,-0.05078 -0.0391,-0.07422 -0.125,-0.07422 -0.375,0 -0.71485,0.02344 -0.89063,0.02344 -0.27343,0 -0.89843,-0.02344 -1.04687,-0.02344 -0.10156,0 -0.15625,0.02344 -0.15625,0.07422 0,0.05859 0.0547,0.07422 0.125,0.07422 0.0977,0 0.23828,0.05078 0.34765,0.109374 0.15625,0.08984 0.36719,0.296876 0.57422,0.605469 0.28907,0.433594 1.40625,2.261719 1.46485,2.394531 0.10547,0.242188 0.1914,0.425782 0.1914,0.875 z m 0,0"
         id="path2233"
         inkscape:connector-curvature="0" />
      <path
         style="fill:#ffffff;fill-opacity:1;fill-rule:nonzero;stroke:none"
         d="m 125.86328,41.90625 c 2.11328,0 3.44531,-1.507812 3.44531,-3.414062 0,-1.902344 -1.29297,-3.109376 -3.36328,-3.109376 -2.49609,0 -3.4375,1.835938 -3.4375,3.261719 0,1.46875 0.96485,3.261719 3.35547,3.261719 m 0.34766,-0.417969 c -1.59766,0 -2.55469,-1.375 -2.55469,-3.101562 0,-2.074219 1.08984,-2.605469 2.04688,-2.605469 1.36718,0 2.43749,1.15625 2.43749,3.019531 0,2.40625 -1.34765,2.6875 -1.92968,2.6875"
         id="path2235"
         inkscape:connector-curvature="0" />
      <path
         style="fill:#ffffff;fill-opacity:1;fill-rule:nonzero;stroke:none"
         d="m 132.14844,38.699219 c 0,-0.05469 0.0195,-0.07422 0.0586,-0.07422 0.14063,0 1.02344,0 1.23438,0.02734 0.2539,0.03125 0.3789,0.183594 0.42187,0.296875 0.0352,0.101562 0.0508,0.203125 0.0508,0.257812 0,0.05859 0.0156,0.117188 0.0664,0.117188 0.082,0 0.082,-0.08203 0.082,-0.15625 0,-0.05859 0.0156,-0.441407 0.0352,-0.609375 0.0234,-0.257813 0.0664,-0.464844 0.0664,-0.515625 0,-0.04687 -0.0156,-0.07422 -0.0508,-0.07422 -0.0508,0 -0.0664,0.03516 -0.10937,0.08203 -0.082,0.109375 -0.19922,0.140625 -0.35547,0.152344 -0.11719,0.0078 -0.23438,0.0078 -0.375,0.0078 l -1.06641,0.0078 c -0.0469,0 -0.0586,-0.02734 -0.0586,-0.07422 l 0,-2.082031 c 0,-0.08984 0.0273,-0.117188 0.0742,-0.117188 l 1.28125,0.02734 c 0.3164,0.0078 0.49218,0.132813 0.55078,0.25 0.0508,0.117188 0.0508,0.25 0.0508,0.316406 0.008,0.08984 0.0234,0.132813 0.082,0.132813 0.0586,0 0.0742,-0.05078 0.082,-0.117187 0.0195,-0.101563 0.0352,-0.589844 0.043,-0.675782 0.0234,-0.214844 0.0664,-0.316406 0.0664,-0.371094 0,-0.04297 -0.0234,-0.07812 -0.0586,-0.07812 -0.0391,0 -0.082,0.03516 -0.13281,0.05078 -0.082,0.02734 -0.18359,0.02734 -0.33984,0.03516 -0.19141,0.0078 -1.88282,0.0078 -2.19532,0.0078 -0.24218,0 -0.76953,-0.02734 -1.19922,-0.02734 -0.125,0 -0.1914,0.01953 -0.1914,0.08594 0,0.05078 0.0586,0.06641 0.14062,0.06641 0.11719,0 0.25782,0.0078 0.32422,0.02344 0.27344,0.05859 0.33985,0.191406 0.35547,0.476563 0.0195,0.265624 0.0195,0.496093 0.0195,1.761718 l 0,1.464844 c 0,0.796875 0,1.421875 -0.043,1.773438 -0.0312,0.238281 -0.0742,0.421874 -0.23828,0.457031 -0.0781,0.01563 -0.17578,0.03125 -0.30078,0.03125 -0.0937,0 -0.125,0.02734 -0.125,0.06641 0,0.06641 0.0586,0.08594 0.17578,0.08594 0.3125,0 0.83985,-0.02734 1.05469,-0.02734 0.21484,0 0.73828,0.02734 1.26562,0.02734 0.125,0 0.1836,-0.02734 0.1836,-0.08594 0,-0.03906 -0.0352,-0.06641 -0.14063,-0.06641 -0.11718,0 -0.30078,-0.01563 -0.41797,-0.03125 -0.25,-0.03516 -0.30078,-0.21875 -0.32421,-0.457031 -0.043,-0.351563 -0.043,-0.976563 -0.043,-1.773438 z m 0,0"
         id="path2237"
         inkscape:connector-curvature="0" />
      <path
         style="fill:#ffffff;fill-opacity:1;fill-rule:nonzero;stroke:none"
         d="m 75.859375,50.527344 c -0.04297,0 -0.08203,-0.02734 -0.08203,-0.09375 l 0,-0.289063 c 0,-2.085937 0,-2.472656 0.02734,-2.910156 0.02734,-0.480469 0.136718,-0.714844 0.507812,-0.785156 0.164062,-0.02344 0.289062,-0.03906 0.398438,-0.03906 0.164062,0 0.246093,-0.02734 0.246093,-0.125 0,-0.09375 -0.09375,-0.121094 -0.289062,-0.121094 -0.535157,0 -1.398438,0.03906 -1.726563,0.03906 -0.371094,0 -1.238281,-0.03906 -1.980468,-0.03906 -0.191407,0 -0.285157,0.02734 -0.285157,0.121094 0,0.09766 0.08203,0.125 0.230469,0.125 0.191406,0 0.425781,0.01563 0.535156,0.03906 0.453125,0.09766 0.566406,0.316406 0.589844,0.785156 0.03125,0.4375 0.03125,0.824219 0.03125,2.910156 l 0,2.417969 c 0,1.261719 0,2.34375 -0.07031,2.921875 -0.05469,0.398437 -0.125,0.699219 -0.398438,0.753906 -0.125,0.02734 -0.289062,0.05469 -0.496094,0.05469 -0.164062,0 -0.21875,0.04297 -0.21875,0.109375 0,0.09766 0.09766,0.140625 0.277344,0.140625 0.546875,0 1.414062,-0.04297 1.726562,-0.04297 0.386719,0 1.25,0.04297 2.144532,0.04297 0.164062,0 0.273437,-0.04297 0.273437,-0.140625 0,-0.06641 -0.07031,-0.109375 -0.21875,-0.109375 -0.207031,0 -0.507812,-0.02734 -0.699219,-0.05469 C 75.96875,56.183594 75.886719,55.882812 75.84375,55.5 75.77734,54.90625 75.77734,53.824219 75.77734,52.5625 l 0,-1.210938 c 0,-0.06641 0.03906,-0.08203 0.08203,-0.08203 l 5.242187,0 c 0.04297,0 0.08594,0.02734 0.08594,0.08203 l 0,1.210938 c 0,1.261719 0,2.34375 -0.07031,2.921875 -0.05469,0.398437 -0.121094,0.699219 -0.398438,0.753906 -0.125,0.02734 -0.289062,0.05469 -0.492188,0.05469 -0.167968,0 -0.222656,0.04297 -0.222656,0.109375 0,0.09766 0.09766,0.140625 0.289063,0.140625 0.535156,0 1.402343,-0.04297 1.71875,-0.04297 0.382812,0 1.246093,0.04297 2.140625,0.04297 0.164062,0 0.273437,-0.04297 0.273437,-0.140625 0,-0.06641 -0.07031,-0.109375 -0.21875,-0.109375 -0.207031,0 -0.507812,-0.02734 -0.699219,-0.05469 C 83.09375,56.183594 83.011719,55.882812 82.96875,55.5 82.90234,54.90625 82.90234,53.824219 82.90234,52.5625 l 0,-2.417969 c 0,-2.085937 0,-2.472656 0.02734,-2.910156 0.02734,-0.480469 0.136718,-0.714844 0.507812,-0.785156 0.164062,-0.02344 0.289062,-0.03906 0.398438,-0.03906 0.164062,0 0.246093,-0.02734 0.246093,-0.125 0,-0.09375 -0.09766,-0.121094 -0.289062,-0.121094 -0.535157,0 -1.398438,0.03906 -1.726563,0.03906 -0.371094,0 -1.238281,-0.03906 -1.980468,-0.03906 -0.191407,0 -0.285157,0.02734 -0.285157,0.121094 0,0.09766 0.08203,0.125 0.230469,0.125 0.195312,0 0.425781,0.01563 0.539062,0.03906 0.449219,0.09766 0.5625,0.316406 0.589844,0.785156 0.02734,0.4375 0.02734,0.824219 0.02734,2.910156 l 0,0.289063 c 0,0.06641 -0.04297,0.09375 -0.08594,0.09375 z m 0,0"
         id="path2239"
         inkscape:connector-curvature="0" />
      <path
         style="fill:#ffffff;fill-opacity:1;fill-rule:nonzero;stroke:none"
         d="m 87.402344,52.558594 c 0,1.265625 0,2.347656 -0.07031,2.925781 -0.05078,0.398437 -0.121093,0.699219 -0.394531,0.753906 -0.125,0.02734 -0.289062,0.05469 -0.496094,0.05469 -0.164062,0 -0.21875,0.04297 -0.21875,0.109375 0,0.09766 0.09375,0.140625 0.273438,0.140625 0.550781,0 1.414062,-0.04297 1.730468,-0.04297 0.808594,0 1.730469,0.08203 3.800782,0.08203 0.523437,0 0.648437,0 0.742187,-0.355469 0.07031,-0.277343 0.179688,-1.210937 0.179688,-1.523437 0,-0.136719 0,-0.25 -0.109375,-0.25 -0.09766,0 -0.125,0.05469 -0.152344,0.207031 -0.09766,0.5625 -0.261719,0.851563 -0.617188,1.015625 -0.355468,0.164063 -0.933593,0.164063 -1.292968,0.164063 -1.398438,0 -1.617188,-0.203125 -1.644532,-1.152344 -0.01562,-0.398438 0,-1.660156 0,-2.128906 l 0,-1.082032 c 0,-0.08203 0.01172,-0.136718 0.08203,-0.136718 0.328125,0 1.6875,0.01172 1.949218,0.03906 0.507813,0.05469 0.699219,0.261719 0.769532,0.535156 0.03906,0.179688 0.03906,0.359376 0.05469,0.496094 0,0.06641 0.02734,0.121094 0.125,0.121094 0.121094,0 0.121094,-0.148438 0.121094,-0.257812 0,-0.09766 0.02734,-0.648438 0.05469,-0.921876 0.04297,-0.699218 0.109376,-0.917968 0.109376,-1 0,-0.08594 -0.03906,-0.109374 -0.09375,-0.109374 -0.07031,0 -0.125,0.06641 -0.222657,0.175781 -0.121093,0.136719 -0.328125,0.179687 -0.65625,0.207031 -0.316406,0.02734 -1.894531,0.02734 -2.199219,0.02734 -0.08203,0 -0.09375,-0.05469 -0.09375,-0.152344 l 0,-3.472656 c 0,-0.09766 0.02734,-0.136719 0.09375,-0.136719 0.277344,0 1.71875,0.02734 1.949219,0.05469 0.6875,0.08203 0.824219,0.246094 0.921875,0.492188 0.06641,0.167969 0.08203,0.402344 0.08203,0.496094 0,0.125 0.02734,0.191406 0.125,0.191406 0.09375,0 0.121093,-0.08203 0.136718,-0.148438 0.02734,-0.167968 0.05469,-0.769531 0.06641,-0.90625 0.04297,-0.632812 0.113282,-0.796874 0.113282,-0.894531 0,-0.06641 -0.01563,-0.121093 -0.08203,-0.121093 -0.07031,0 -0.152343,0.03906 -0.222656,0.05469 -0.109375,0.02734 -0.328125,0.05469 -0.589844,0.08203 -0.261718,0.01172 -2.992187,0.01172 -3.429687,0.01172 -0.386719,0 -1.25,-0.03906 -1.980469,-0.03906 -0.203125,0 -0.300781,0.02734 -0.300781,0.121094 0,0.09766 0.08203,0.125 0.234375,0.125 0.191406,0 0.425781,0.01172 0.535156,0.04297 0.453125,0.09375 0.5625,0.3125 0.589844,0.78125 0.02734,0.4375 0.02734,0.824219 0.02734,2.910156 z m 0,0"
         id="path2241"
         inkscape:connector-curvature="0" />
      <path
         style="fill:#ffffff;fill-opacity:1;fill-rule:nonzero;stroke:none"
         d="m 99.960938,52.957031 c 0.07031,0 0.109372,0.02734 0.136722,0.09766 l 1.09765,2.910156 c 0.0703,0.164062 -0.0273,0.289062 -0.125,0.316406 -0.13672,0.01172 -0.1914,0.04297 -0.1914,0.125 0,0.09375 0.16797,0.09375 0.41406,0.109375 1.09766,0.02734 2.09766,0.02734 2.59375,0.02734 0.50781,0 0.63281,-0.02734 0.63281,-0.136719 0,-0.09766 -0.0703,-0.113281 -0.17969,-0.113281 -0.16406,0 -0.37109,-0.01172 -0.57812,-0.05469 -0.28906,-0.06641 -0.68359,-0.257812 -1.20703,-1.496093 -0.87891,-2.085938 -3.074221,-7.6875 -3.402346,-8.441407 -0.140625,-0.316406 -0.222656,-0.441406 -0.34375,-0.441406 -0.140625,0 -0.222656,0.152344 -0.386719,0.550781 l -3.445313,8.621094 c -0.273437,0.6875 -0.535156,1.152344 -1.167968,1.234375 -0.109375,0.01563 -0.300782,0.02734 -0.425782,0.02734 -0.109374,0 -0.164062,0.03125 -0.164062,0.113281 0,0.109375 0.08203,0.136719 0.261719,0.136719 0.714843,0 1.46875,-0.04297 1.621093,-0.04297 0.425782,0 1.015626,0.04297 1.453126,0.04297 0.152343,0 0.234374,-0.02734 0.234374,-0.136719 0,-0.08203 -0.04297,-0.113281 -0.207031,-0.113281 l -0.203125,0 c -0.425781,0 -0.550781,-0.175781 -0.550781,-0.425781 0,-0.164063 0.07031,-0.492188 0.207031,-0.835938 l 0.742188,-1.960938 c 0.02734,-0.08594 0.05469,-0.113281 0.121094,-0.113281 z m -2.789063,-0.683593 c -0.05469,0 -0.06641,-0.04297 -0.05469,-0.09766 l 1.265624,-3.375 c 0.01172,-0.05859 0.03906,-0.125 0.08203,-0.125 0.03906,0 0.05469,0.06641 0.06641,0.125 l 1.238281,3.386719 c 0.01172,0.04297 0,0.08594 -0.07031,0.08594 z m 0,0"
         id="path2243"
         inkscape:connector-curvature="0" />
      <path
         style="fill:#ffffff;fill-opacity:1;fill-rule:nonzero;stroke:none"
         d="m 107.94922,50.144531 c 0,-2.085937 0,-2.472656 0.0273,-2.910156 0.0273,-0.480469 0.13672,-0.714844 0.50782,-0.78125 0.16406,-0.03125 0.38281,-0.04297 0.53515,-0.04297 0.16406,0 0.2461,-0.02734 0.2461,-0.125 0,-0.09375 -0.0937,-0.121094 -0.28516,-0.121094 -0.53516,0 -1.53906,0.03906 -1.86719,0.03906 -0.37109,0 -1.23828,-0.03906 -1.88281,-0.03906 -0.20703,0 -0.30078,0.02734 -0.30078,0.121094 0,0.09766 0.082,0.125 0.23437,0.125 0.17578,0 0.33985,0.01172 0.44922,0.04297 0.45313,0.09375 0.56641,0.3125 0.59375,0.78125 0.0273,0.4375 0.0273,0.824219 0.0273,2.910156 l 0,2.414063 c 0,1.265625 0,2.347656 -0.0703,2.925781 -0.0547,0.398437 -0.12109,0.699219 -0.39843,0.753906 -0.125,0.02734 -0.28907,0.05469 -0.49219,0.05469 -0.16797,0 -0.22266,0.04297 -0.22266,0.109375 0,0.09766 0.0977,0.140625 0.27735,0.140625 0.54687,0 1.41406,-0.04297 1.72656,-0.04297 1.11328,0 2.01953,0.08203 3.99609,0.08203 0.71485,0 0.78125,-0.06641 0.86719,-0.371093 0.10937,-0.398438 0.20312,-1.425782 0.20312,-1.578126 0,-0.164062 -0.0117,-0.230468 -0.10937,-0.230468 -0.10938,0 -0.13672,0.08203 -0.14844,0.203125 -0.0312,0.261719 -0.19531,0.644531 -0.35937,0.824219 -0.34375,0.371093 -0.87891,0.382812 -1.60547,0.382812 -1.07031,0 -1.42578,-0.09375 -1.66016,-0.300781 -0.28906,-0.246094 -0.28906,-1.195313 -0.28906,-2.953125 z m 0,0"
         id="path2245"
         inkscape:connector-curvature="0" />
      <path
         style="fill:#ffffff;fill-opacity:1;fill-rule:nonzero;stroke:none"
         d="m 115.97656,52.558594 c 0,1.265625 0,2.347656 -0.0664,2.925781 -0.043,0.398437 -0.125,0.699219 -0.39844,0.753906 -0.125,0.02734 -0.28906,0.05469 -0.49609,0.05469 -0.16407,0 -0.21875,0.04297 -0.21875,0.109375 0,0.09766 0.0977,0.140625 0.27734,0.140625 0.54687,0 1.41406,-0.04297 1.72656,-0.04297 0.38672,0 1.25,0.04297 2.15625,0.04297 0.15235,0 0.26172,-0.04297 0.26172,-0.140625 0,-0.06641 -0.0703,-0.109375 -0.21875,-0.109375 -0.20703,0 -0.51172,-0.02734 -0.70312,-0.05469 -0.41016,-0.05469 -0.49219,-0.355469 -0.53516,-0.738281 -0.0664,-0.59375 -0.0664,-1.675781 -0.0664,-2.941406 l 0,-5.628906 1.73047,0.04297 c 1.21875,0.02734 1.58985,0.410156 1.61719,0.769532 l 0.0156,0.148437 c 0.0117,0.207031 0.0391,0.277344 0.15235,0.277344 0.082,0 0.10937,-0.08203 0.12109,-0.222657 0,-0.355468 0.0391,-1.300781 0.0391,-1.589843 0,-0.207031 -0.0117,-0.289063 -0.10546,-0.289063 -0.11329,0 -0.44141,0.136719 -1.32032,0.136719 l -5.4375,0 c -0.45312,0 -0.97265,-0.02734 -1.37109,-0.06641 -0.34375,-0.02734 -0.48047,-0.164063 -0.58984,-0.164063 -0.082,0 -0.125,0.08203 -0.16407,0.257813 -0.0312,0.109375 -0.28906,1.359375 -0.28906,1.578125 0,0.152344 0.0273,0.222656 0.12109,0.222656 0.0859,0 0.125,-0.05469 0.15235,-0.167969 0.0273,-0.109375 0.0977,-0.273437 0.23437,-0.480469 0.20703,-0.300781 0.53516,-0.371093 1.33203,-0.394531 l 2.04297,-0.05859 z m 0,0"
         id="path2247"
         inkscape:connector-curvature="0" />
      <path
         style="fill:#ffffff;fill-opacity:1;fill-rule:nonzero;stroke:none"
         d="m 125.97266,50.527344 c -0.043,0 -0.082,-0.02734 -0.082,-0.09375 l 0,-0.289063 c 0,-2.085937 0,-2.472656 0.0234,-2.910156 0.0312,-0.480469 0.14063,-0.714844 0.50782,-0.785156 0.16796,-0.02344 0.28906,-0.03906 0.39843,-0.03906 0.16797,0 0.25,-0.02734 0.25,-0.125 0,-0.09375 -0.0977,-0.121094 -0.28906,-0.121094 -0.53516,0 -1.40234,0.03906 -1.73047,0.03906 -0.37109,0 -1.23437,-0.03906 -1.97656,-0.03906 -0.19141,0 -0.28906,0.02734 -0.28906,0.121094 0,0.09766 0.082,0.125 0.23437,0.125 0.19141,0 0.42578,0.01563 0.53516,0.03906 0.45312,0.09766 0.5625,0.316406 0.58984,0.785156 0.0273,0.4375 0.0273,0.824219 0.0273,2.910156 l 0,2.417969 c 0,1.261719 0,2.34375 -0.0703,2.921875 -0.0547,0.398437 -0.12109,0.699219 -0.39453,0.753906 -0.125,0.02734 -0.28906,0.05469 -0.49609,0.05469 -0.16406,0 -0.21875,0.04297 -0.21875,0.109375 0,0.09766 0.0937,0.140625 0.27344,0.140625 0.55078,0 1.41406,-0.04297 1.73046,-0.04297 0.38282,0 1.25,0.04297 2.14063,0.04297 0.16406,0 0.27734,-0.04297 0.27734,-0.140625 0,-0.06641 -0.0703,-0.109375 -0.22265,-0.109375 -0.20313,0 -0.50782,-0.02734 -0.69922,-0.05469 -0.41016,-0.05469 -0.4961,-0.355469 -0.53516,-0.738281 -0.0664,-0.59375 -0.0664,-1.675781 -0.0664,-2.9375 l 0,-1.210938 c 0,-0.06641 0.0391,-0.08203 0.082,-0.08203 l 5.24218,0 c 0.0391,0 0.082,0.02734 0.082,0.08203 l 0,1.210938 c 0,1.261719 0,2.34375 -0.0664,2.921875 -0.0586,0.398437 -0.125,0.699219 -0.39844,0.753906 -0.125,0.02734 -0.28906,0.05469 -0.49609,0.05469 -0.16407,0 -0.21875,0.04297 -0.21875,0.109375 0,0.09766 0.0937,0.140625 0.28906,0.140625 0.53516,0 1.39844,-0.04297 1.71484,-0.04297 0.38282,0 1.25,0.04297 2.14063,0.04297 0.16406,0 0.27734,-0.04297 0.27734,-0.140625 0,-0.06641 -0.0703,-0.109375 -0.22265,-0.109375 -0.20313,0 -0.50782,-0.02734 -0.69922,-0.05469 -0.41016,-0.05469 -0.49219,-0.355469 -0.53516,-0.738281 -0.0664,-0.59375 -0.0664,-1.675781 -0.0664,-2.9375 l 0,-2.417969 c 0,-2.085937 0,-2.472656 0.0273,-2.910156 0.0234,-0.480469 0.13672,-0.714844 0.50781,-0.785156 0.16406,-0.02344 0.28516,-0.03906 0.39453,-0.03906 0.16797,0 0.25,-0.02734 0.25,-0.125 0,-0.09375 -0.0977,-0.121094 -0.28906,-0.121094 -0.53516,0 -1.40234,0.03906 -1.73047,0.03906 -0.37109,0 -1.23437,-0.03906 -1.97656,-0.03906 -0.19141,0 -0.28906,0.02734 -0.28906,0.121094 0,0.09766 0.082,0.125 0.23437,0.125 0.19141,0 0.42578,0.01563 0.53516,0.03906 0.45312,0.09766 0.5625,0.316406 0.58984,0.785156 0.0273,0.4375 0.0273,0.824219 0.0273,2.910156 l 0,0.289063 c 0,0.06641 -0.043,0.09375 -0.082,0.09375 z m 0,0"
         id="path2249"
         inkscape:connector-curvature="0" />
      <g
         clip-path="url(#clip18)"
         id="g2251"
         style="clip-rule:nonzero">
        <path
           style="fill:#211e1e;fill-opacity:1;fill-rule:nonzero;stroke:none"
           d="m 73.109375,72.492188 c -0.02734,0.199218 -0.07422,0.425781 -0.238281,0.460937 -0.08594,0.01953 -0.128906,0.01953 -0.175782,0.01953 -0.05859,0 -0.08984,0.0078 -0.08984,0.03906 0,0.05078 0.04687,0.0625 0.101562,0.0625 0.1875,0 0.46875,-0.01563 0.578125,-0.01563 0.105469,0 0.367188,0.01563 0.613282,0.01563 0.08594,0 0.136718,-0.01172 0.136718,-0.0625 0,-0.03125 -0.03906,-0.03906 -0.08594,-0.03906 -0.05859,0 -0.140625,-0.0078 -0.246094,-0.03125 -0.09766,-0.02344 -0.175781,-0.07422 -0.175781,-0.1875 0,-0.09375 0.0078,-0.167968 0.01953,-0.273437 l 0.304687,-2.316407 0.02344,0 c 0.203125,0.4375 0.550781,1.167969 0.605469,1.292969 0.06641,0.164063 0.527343,1.054688 0.667969,1.320313 0.09375,0.175781 0.152343,0.292968 0.203124,0.292968 0.05469,0 0.08203,-0.05469 0.21875,-0.328124 l 1.269532,-2.644532 0.01953,0 0.351563,2.5625 c 0.02344,0.164063 0.0078,0.242188 -0.02734,0.253906 -0.04297,0.01563 -0.06641,0.03516 -0.06641,0.0625 0,0.03516 0.03516,0.05078 0.167968,0.0625 0.234375,0.01953 1.039063,0.03516 1.183594,0.03516 0.08203,0 0.152344,-0.01563 0.152344,-0.0625 0,-0.03516 -0.04297,-0.03906 -0.09375,-0.03906 -0.07422,0 -0.191406,-0.0078 -0.363282,-0.05859 -0.171874,-0.05469 -0.230468,-0.222656 -0.285156,-0.589843 l -0.527344,-3.597657 c -0.01953,-0.125 -0.05469,-0.183593 -0.105468,-0.183593 -0.05469,0 -0.08984,0.04687 -0.128906,0.140625 l -1.582032,3.324218 -1.59375,-3.28125 c -0.07422,-0.152343 -0.109375,-0.183593 -0.15625,-0.183593 -0.04687,0 -0.08203,0.05469 -0.09766,0.152343 z m 0,0"
           id="path2253"
           inkscape:connector-curvature="0" />
      </g>
      <g
         clip-path="url(#clip19)"
         id="g2255"
         style="clip-rule:nonzero">
        <path
           style="fill:#211e1e;fill-opacity:1;fill-rule:nonzero;stroke:none"
           d="m 81.367188,71.554688 c 0.03125,0 0.04687,0.01172 0.05859,0.04297 l 0.46875,1.234375 c 0.02734,0.07031 -0.01172,0.121094 -0.05469,0.132813 -0.05859,0.0078 -0.08203,0.01563 -0.08203,0.05078 0,0.04297 0.07031,0.04297 0.175782,0.04687 0.464844,0.01172 0.890625,0.01172 1.101562,0.01172 0.214844,0 0.265625,-0.01172 0.265625,-0.05859 0,-0.03906 -0.02734,-0.04297 -0.07422,-0.04297 -0.07031,0 -0.15625,-0.0078 -0.242187,-0.02344 -0.125,-0.03125 -0.292969,-0.113281 -0.515625,-0.636719 -0.371094,-0.886719 -1.304688,-3.261719 -1.445312,-3.582031 -0.05469,-0.132813 -0.08984,-0.1875 -0.144532,-0.1875 -0.05859,0 -0.09375,0.06641 -0.160156,0.234375 l -1.464844,3.65625 c -0.117187,0.292968 -0.226562,0.492187 -0.492187,0.523437 -0.04687,0.0078 -0.128907,0.01563 -0.183594,0.01563 -0.04687,0 -0.07031,0.0078 -0.07031,0.04297 0,0.04687 0.03516,0.05859 0.113282,0.05859 0.300781,0 0.621094,-0.01563 0.6875,-0.01563 0.179687,0 0.429687,0.01563 0.617187,0.01563 0.0625,0 0.09766,-0.01172 0.09766,-0.05859 0,-0.03516 -0.01563,-0.04297 -0.08594,-0.04297 l -0.08984,0 c -0.179687,0 -0.230468,-0.07813 -0.230468,-0.183594 0,-0.07031 0.02734,-0.207031 0.08594,-0.355468 l 0.3125,-0.832032 c 0.01563,-0.03516 0.02734,-0.04687 0.05469,-0.04687 z M 80.1875,71.265625 c -0.02344,0 -0.03125,-0.01953 -0.02344,-0.04297 l 0.535157,-1.429687 c 0.0078,-0.02734 0.01953,-0.05469 0.03516,-0.05469 0.01563,0 0.02344,0.02734 0.02734,0.05469 l 0.523437,1.4375 c 0.0078,0.01563 0,0.03516 -0.02734,0.03516 z m 0,0"
           id="path2257"
           inkscape:connector-curvature="0" />
      </g>
      <g
         clip-path="url(#clip20)"
         id="g2259"
         style="clip-rule:nonzero">
        <path
           style="fill:#211e1e;fill-opacity:1;fill-rule:nonzero;stroke:none"
           d="m 84.410156,69.835938 0.01953,0 c 0.101562,0.113281 0.75,0.839843 1.382812,1.46875 0.605469,0.601562 1.351562,1.363281 1.71875,1.710937 0.0625,0.06641 0.132812,0.128906 0.199219,0.128906 0.05078,0 0.07422,-0.05078 0.07422,-0.179687 l 0.0625,-3.675782 c 0.0078,-0.324218 0.05469,-0.449218 0.214843,-0.496093 0.07031,-0.01563 0.117188,-0.01563 0.175781,-0.01563 0.07031,0 0.105469,-0.01953 0.105469,-0.05078 0,-0.04687 -0.05859,-0.05469 -0.132812,-0.05469 -0.285157,0 -0.507813,0.01953 -0.574219,0.01953 -0.121094,0 -0.398438,-0.01953 -0.703125,-0.01953 -0.08594,0 -0.148437,0.0078 -0.148437,0.05469 0,0.03125 0.01953,0.05078 0.08984,0.05078 0.08203,0 0.222657,0 0.308594,0.03516 0.140625,0.05859 0.195313,0.167969 0.199219,0.523438 l 0.05859,2.617187 -0.03125,0 c -0.09766,-0.09375 -0.882813,-0.933594 -1.277344,-1.328125 -0.851563,-0.847656 -1.734375,-1.796875 -1.804688,-1.871094 -0.101562,-0.105468 -0.152344,-0.179687 -0.21875,-0.179687 -0.05859,0 -0.07422,0.08203 -0.07422,0.199219 L 84,72.21875 c -0.0039,0.507812 -0.02734,0.675781 -0.179688,0.722656 -0.08203,0.02344 -0.1875,0.03125 -0.261718,0.03125 -0.05859,0 -0.09375,0.0078 -0.09375,0.04297 0,0.05469 0.05078,0.05859 0.128906,0.05859 0.300781,0 0.578125,-0.01563 0.628906,-0.01563 0.113282,0 0.34375,0.01563 0.722656,0.01563 0.08203,0 0.136719,-0.01172 0.136719,-0.05859 -0.0039,-0.03516 -0.03906,-0.04297 -0.101562,-0.04297 -0.09375,0 -0.203125,-0.0078 -0.304688,-0.04297 -0.117187,-0.03906 -0.191406,-0.191407 -0.203125,-0.644532 z m 0,0"
           id="path2261"
           inkscape:connector-curvature="0" />
      </g>
      <g
         clip-path="url(#clip21)"
         id="g2263"
         style="clip-rule:nonzero">
        <path
           style="fill:#211e1e;fill-opacity:1;fill-rule:nonzero;stroke:none"
           d="m 91.425781,71.554688 c 0.02734,0 0.04687,0.01172 0.05859,0.04297 l 0.464844,1.234375 c 0.02734,0.07031 -0.01172,0.121094 -0.05469,0.132813 -0.05469,0.0078 -0.07813,0.01563 -0.07813,0.05078 0,0.04297 0.06641,0.04297 0.175782,0.04687 0.464843,0.01172 0.890624,0.01172 1.097656,0.01172 0.214844,0 0.269531,-0.01172 0.269531,-0.05859 0,-0.03906 -0.03125,-0.04297 -0.07813,-0.04297 -0.07031,0 -0.15625,-0.0078 -0.242188,-0.02344 -0.125,-0.03125 -0.292968,-0.113281 -0.511718,-0.636719 -0.375,-0.886719 -1.308594,-3.261719 -1.445313,-3.582031 -0.05859,-0.132813 -0.09375,-0.1875 -0.144531,-0.1875 -0.0625,0 -0.09766,0.06641 -0.164062,0.234375 l -1.464844,3.65625 c -0.113282,0.292968 -0.226563,0.492187 -0.492188,0.523437 -0.04687,0.0078 -0.128906,0.01563 -0.179687,0.01563 -0.04687,0 -0.07031,0.0078 -0.07031,0.04297 0,0.04687 0.03516,0.05859 0.109375,0.05859 0.300781,0 0.621094,-0.01563 0.6875,-0.01563 0.179688,0 0.429688,0.01563 0.617188,0.01563 0.06641,0 0.09766,-0.01172 0.09766,-0.05859 0,-0.03516 -0.01563,-0.04297 -0.08594,-0.04297 l -0.08594,0 c -0.183594,0 -0.234375,-0.07813 -0.234375,-0.183594 0,-0.07031 0.02734,-0.207031 0.08594,-0.355468 l 0.316407,-0.832032 c 0.01172,-0.03516 0.02344,-0.04687 0.05078,-0.04687 z m -1.183593,-0.289063 c -0.02344,0 -0.02734,-0.01953 -0.02344,-0.04297 l 0.535156,-1.429687 c 0.0078,-0.02734 0.01953,-0.05469 0.03516,-0.05469 0.01953,0 0.02344,0.02734 0.03125,0.05469 l 0.523438,1.4375 c 0.0039,0.01563 0,0.03516 -0.03125,0.03516 z m 0,0"
           id="path2265"
           inkscape:connector-curvature="0" />
      </g>
      <g
         clip-path="url(#clip22)"
         id="g2267"
         style="clip-rule:nonzero">
        <path
           style="fill:#211e1e;fill-opacity:1;fill-rule:nonzero;stroke:none"
           d="m 94.597656,71.386719 c 0,0.535156 0,0.996093 -0.02734,1.242187 -0.01953,0.167969 -0.05469,0.296875 -0.171874,0.316406 -0.05078,0.01563 -0.121094,0.02734 -0.207032,0.02734 -0.07031,0 -0.09375,0.01563 -0.09375,0.04297 0,0.04297 0.03906,0.05859 0.117188,0.05859 0.230468,0 0.597656,-0.01563 0.730468,-0.01563 0.164063,0 0.53125,0.01563 0.917969,0.01563 0.0625,0 0.109375,-0.01563 0.109375,-0.05859 0,-0.02734 -0.02734,-0.04297 -0.09375,-0.04297 -0.08594,0 -0.214844,-0.01172 -0.296875,-0.02734 -0.175781,-0.01953 -0.207031,-0.148437 -0.226562,-0.3125 -0.03125,-0.25 -0.03125,-0.710937 -0.03125,-1.246093 l 0,-2.386719 0.734375,0.01563 c 0.519531,0.01172 0.675781,0.175781 0.6875,0.328125 l 0.0078,0.0625 c 0.0039,0.08594 0.01563,0.117188 0.0625,0.117188 0.03516,0 0.04687,-0.03516 0.05469,-0.09375 0,-0.152344 0.01563,-0.554688 0.01563,-0.675782 0,-0.08594 -0.0078,-0.121094 -0.04687,-0.121094 -0.04687,0 -0.183594,0.05859 -0.558594,0.05859 l -2.308594,0 c -0.191406,0 -0.410156,-0.01172 -0.578125,-0.03125 -0.148437,-0.01172 -0.207031,-0.07031 -0.253906,-0.07031 -0.03516,0 -0.05078,0.03516 -0.06641,0.113281 -0.01172,0.04687 -0.125,0.574219 -0.125,0.667969 0,0.0625 0.01172,0.09375 0.05078,0.09375 0.03516,0 0.05469,-0.02344 0.06641,-0.07031 0.01172,-0.04687 0.03906,-0.117187 0.09766,-0.203125 0.08984,-0.128906 0.230469,-0.15625 0.566407,-0.167968 L 94.597656,69 Z m 0,0"
           id="path2269"
           inkscape:connector-curvature="0" />
      </g>
      <g
         clip-path="url(#clip23)"
         id="g2271"
         style="clip-rule:nonzero">
        <path
           style="fill:#211e1e;fill-opacity:1;fill-rule:nonzero;stroke:none"
           d="m 97.941406,71.210938 c 0,0.84375 0.21875,1.277343 0.519532,1.542968 0.421874,0.386719 0.980468,0.402344 1.289062,0.402344 0.37891,0 0.80078,-0.0625 1.21484,-0.417969 0.48829,-0.421875 0.55079,-1.109375 0.55079,-1.753906 l 0,-0.625 c 0,-0.882813 0,-1.046875 0.0117,-1.234375 0.0117,-0.203125 0.0586,-0.300781 0.21485,-0.332031 0.0703,-0.01172 0.10547,-0.01563 0.16797,-0.01563 0.0742,0 0.10937,-0.01172 0.10937,-0.05469 0,-0.03906 -0.043,-0.05078 -0.125,-0.05078 -0.22656,0 -0.59375,0.01953 -0.66406,0.01953 -0.004,0 -0.37109,-0.01953 -0.66797,-0.01953 -0.082,0 -0.125,0.01172 -0.125,0.05078 0,0.04297 0.0352,0.05469 0.10156,0.05469 0.0625,0 0.16407,0.0039 0.20703,0.01563 0.19532,0.04297 0.23829,0.136719 0.25,0.332031 0.0117,0.1875 0.0117,0.351562 0.0117,1.234375 l 0,0.730469 c 0,0.597656 -0.0156,1.125 -0.33593,1.445312 -0.23438,0.230469 -0.54688,0.3125 -0.804692,0.3125 -0.199219,0 -0.464844,-0.02344 -0.726563,-0.238281 C 98.855469,72.375 98.683594,72.019531 98.683594,71.175781 l 0,-0.816406 c 0,-0.882813 0,-1.046875 0.01172,-1.234375 0.01563,-0.203125 0.0625,-0.300781 0.21875,-0.332031 0.07031,-0.01172 0.105469,-0.01563 0.167969,-0.01563 0.05859,0 0.09375,-0.01172 0.09375,-0.05469 0,-0.03906 -0.04297,-0.05078 -0.128906,-0.05078 -0.210937,0 -0.578125,0.01953 -0.714844,0.01953 -0.175781,0 -0.542969,-0.01953 -0.851562,-0.01953 -0.08594,0 -0.128907,0.01172 -0.128907,0.05078 0,0.04297 0.03516,0.05469 0.09766,0.05469 0.08203,0 0.183593,0.0039 0.230469,0.01563 0.191406,0.04297 0.238281,0.136719 0.25,0.332031 0.01172,0.1875 0.01172,0.351562 0.01172,1.234375 z m 0,0"
           id="path2273"
           inkscape:connector-curvature="0" />
      </g>
      <g
         clip-path="url(#clip24)"
         id="g2275"
         style="clip-rule:nonzero">
        <path
           style="fill:#211e1e;fill-opacity:1;fill-rule:nonzero;stroke:none"
           d="m 106.125,70.523438 c -0.0156,0 -0.0352,-0.01172 -0.0352,-0.03906 l 0,-0.121094 c 0,-0.886719 0,-1.050781 0.0117,-1.238281 0.0117,-0.203125 0.0586,-0.300781 0.21485,-0.328125 0.0703,-0.01563 0.125,-0.01953 0.17187,-0.01953 0.0703,0 0.10547,-0.01172 0.10547,-0.05078 0,-0.04297 -0.043,-0.05469 -0.125,-0.05469 -0.22656,0 -0.59375,0.01563 -0.73437,0.01563 -0.15625,0 -0.52344,-0.01563 -0.83594,-0.01563 -0.082,0 -0.125,0.01172 -0.125,0.05469 0,0.03906 0.0391,0.05078 0.10156,0.05078 0.082,0 0.17969,0.0039 0.22656,0.01953 0.19141,0.03906 0.23828,0.132813 0.25,0.328125 0.0117,0.1875 0.0117,0.351562 0.0117,1.238281 l 0,1.023438 c 0,0.535156 0,0.996093 -0.0273,1.242187 -0.0273,0.167969 -0.0547,0.296875 -0.17188,0.320313 -0.0508,0.0078 -0.12109,0.01953 -0.20703,0.01953 -0.0703,0 -0.0937,0.01953 -0.0937,0.04687 0,0.04297 0.0391,0.05859 0.11719,0.05859 0.23047,0 0.59766,-0.01563 0.73047,-0.01563 0.16406,0 0.53125,0.01563 0.91015,0.01563 0.0703,0 0.11719,-0.01563 0.11719,-0.05859 0,-0.02734 -0.0312,-0.04687 -0.0937,-0.04687 -0.0859,0 -0.21484,-0.01172 -0.29687,-0.01953 -0.17578,-0.02344 -0.21094,-0.152344 -0.22657,-0.316407 -0.0312,-0.25 -0.0312,-0.710937 -0.0312,-1.246093 l 0,-0.511719 c 0,-0.03125 0.0195,-0.03516 0.0352,-0.03516 l 2.22656,0 c 0.0156,0 0.0352,0.01172 0.0352,0.03516 l 0,0.511719 c 0,0.535156 0,0.996093 -0.0312,1.242187 -0.0234,0.167969 -0.0508,0.296875 -0.16797,0.320313 -0.0508,0.0078 -0.12109,0.01953 -0.21094,0.01953 -0.0664,0 -0.0898,0.01953 -0.0898,0.04687 0,0.04297 0.0391,0.05859 0.12109,0.05859 0.22657,0 0.59375,-0.01563 0.72657,-0.01563 0.16406,0 0.53125,0.01563 0.91015,0.01563 0.0703,0 0.11719,-0.01563 0.11719,-0.05859 0,-0.02734 -0.0312,-0.04687 -0.0937,-0.04687 -0.0898,0 -0.21484,-0.01172 -0.29688,-0.01953 -0.17578,-0.02344 -0.21093,-0.152344 -0.22656,-0.316407 -0.0312,-0.25 -0.0312,-0.710937 -0.0312,-1.246093 l 0,-1.023438 c 0,-0.886719 0,-1.050781 0.0117,-1.238281 0.0117,-0.203125 0.0586,-0.300781 0.21484,-0.328125 0.0703,-0.01563 0.125,-0.01953 0.17188,-0.01953 0.0664,0 0.10156,-0.01172 0.10156,-0.05078 0,-0.04297 -0.0391,-0.05469 -0.12109,-0.05469 -0.22656,0 -0.59375,0.01563 -0.73438,0.01563 -0.15625,0 -0.52343,-0.01563 -0.83984,-0.01563 -0.0781,0 -0.12109,0.01172 -0.12109,0.05469 0,0.03906 0.0352,0.05078 0.10156,0.05078 0.0781,0 0.17969,0.0039 0.22656,0.01953 0.19141,0.03906 0.23828,0.132813 0.25,0.328125 0.0117,0.1875 0.0117,0.351562 0.0117,1.238281 l 0,0.121094 c 0,0.02734 -0.0195,0.03906 -0.0352,0.03906 z m 0,0"
           id="path2277"
           inkscape:connector-curvature="0" />
      </g>
      <g
         clip-path="url(#clip25)"
         id="g2279"
         style="clip-rule:nonzero">
        <path
           style="fill:#211e1e;fill-opacity:1;fill-rule:nonzero;stroke:none"
           d="m 112.78906,71.554688 c 0.0273,0 0.0469,0.01172 0.0586,0.04297 l 0.46484,1.234375 c 0.0273,0.07031 -0.0117,0.121094 -0.0508,0.132813 -0.0625,0.0078 -0.082,0.01563 -0.082,0.05078 0,0.04297 0.0664,0.04297 0.17187,0.04687 0.46875,0.01172 0.89063,0.01172 1.10157,0.01172 0.21484,0 0.26953,-0.01172 0.26953,-0.05859 0,-0.03906 -0.0312,-0.04297 -0.0781,-0.04297 -0.0703,0 -0.15625,-0.0078 -0.24219,-0.02344 -0.125,-0.03125 -0.29296,-0.113281 -0.51562,-0.636719 -0.37109,-0.886719 -1.30078,-3.261719 -1.44141,-3.582031 -0.0586,-0.132813 -0.0937,-0.1875 -0.14843,-0.1875 -0.0547,0 -0.0898,0.06641 -0.16016,0.234375 l -1.46094,3.65625 c -0.11719,0.292968 -0.23047,0.492187 -0.49609,0.523437 -0.0469,0.0078 -0.12891,0.01563 -0.17969,0.01563 -0.0469,0 -0.0703,0.0078 -0.0703,0.04297 0,0.04687 0.0352,0.05859 0.10937,0.05859 0.30469,0 0.625,-0.01563 0.6875,-0.01563 0.17969,0 0.42969,0.01563 0.61719,0.01563 0.0625,0 0.0977,-0.01172 0.0977,-0.05859 0,-0.03516 -0.0156,-0.04297 -0.0859,-0.04297 l -0.0859,0 c -0.18359,0 -0.23437,-0.07813 -0.23437,-0.183594 0,-0.07031 0.0273,-0.207031 0.0859,-0.355468 l 0.31641,-0.832032 c 0.0117,-0.03516 0.0234,-0.04687 0.0508,-0.04687 z m -1.18359,-0.289063 c -0.0234,0 -0.0273,-0.01953 -0.0234,-0.04297 l 0.53516,-1.429687 c 0.008,-0.02734 0.0195,-0.05469 0.0352,-0.05469 0.0195,0 0.0234,0.02734 0.0312,0.05469 l 0.52344,1.4375 c 0.004,0.01563 0,0.03516 -0.0312,0.03516 z m 0,0"
           id="path2281"
           inkscape:connector-curvature="0" />
      </g>
      <g
         clip-path="url(#clip26)"
         id="g2283"
         style="clip-rule:nonzero">
        <path
           style="fill:#211e1e;fill-opacity:1;fill-rule:nonzero;stroke:none"
           d="m 115.28516,71.210938 c 0,0.84375 0.22265,1.277343 0.51953,1.542968 0.42578,0.386719 0.98437,0.402344 1.29297,0.402344 0.3789,0 0.79687,-0.0625 1.21093,-0.417969 0.48829,-0.421875 0.55469,-1.109375 0.55469,-1.753906 l 0,-0.625 c 0,-0.882813 0,-1.046875 0.0117,-1.234375 0.0117,-0.203125 0.0586,-0.300781 0.21484,-0.332031 0.0703,-0.01172 0.10547,-0.01563 0.16797,-0.01563 0.0703,0 0.10547,-0.01172 0.10547,-0.05469 0,-0.03906 -0.0391,-0.05078 -0.12109,-0.05078 -0.22656,0 -0.59375,0.01953 -0.66797,0.01953 -0.004,0 -0.37109,-0.01953 -0.66797,-0.01953 -0.082,0 -0.12109,0.01172 -0.12109,0.05078 0,0.04297 0.0352,0.05469 0.0977,0.05469 0.0625,0 0.16407,0.0039 0.21094,0.01563 0.19141,0.04297 0.23828,0.136719 0.25,0.332031 0.0117,0.1875 0.0117,0.351562 0.0117,1.234375 l 0,0.730469 c 0,0.597656 -0.0156,1.125 -0.33984,1.445312 -0.23047,0.230469 -0.54688,0.3125 -0.80079,0.3125 -0.19921,0 -0.46875,-0.02344 -0.73046,-0.238281 -0.28516,-0.234375 -0.45313,-0.589844 -0.45313,-1.433594 l 0,-0.816406 c 0,-0.882813 0,-1.046875 0.0117,-1.234375 0.0117,-0.203125 0.0586,-0.300781 0.21484,-0.332031 0.0703,-0.01172 0.10547,-0.01563 0.16797,-0.01563 0.0586,0 0.0937,-0.01172 0.0937,-0.05469 0,-0.03906 -0.0391,-0.05078 -0.125,-0.05078 -0.21094,0 -0.57812,0.01953 -0.71875,0.01953 -0.17187,0 -0.53906,-0.01953 -0.85156,-0.01953 -0.0859,0 -0.125,0.01172 -0.125,0.05078 0,0.04297 0.0312,0.05469 0.0977,0.05469 0.082,0 0.17968,0.0039 0.22656,0.01563 0.1914,0.04297 0.23828,0.136719 0.25,0.332031 0.0117,0.1875 0.0117,0.351562 0.0117,1.234375 z m 0,0"
           id="path2285"
           inkscape:connector-curvature="0" />
      </g>
      <g
         clip-path="url(#clip27)"
         id="g2287"
         style="clip-rule:nonzero">
        <path
           style="fill:#211e1e;fill-opacity:1;fill-rule:nonzero;stroke:none"
           d="m 122.44141,73.15625 c 1.48047,0 2.41406,-1.054688 2.41406,-2.386719 0,-1.335937 -0.90625,-2.179687 -2.35547,-2.179687 -1.74609,0 -2.40625,1.289062 -2.40625,2.285156 0,1.03125 0.67578,2.28125 2.34766,2.28125 m 0.24609,-0.289062 c -1.11719,0 -1.78906,-0.960938 -1.78906,-2.171876 0,-1.453124 0.76172,-1.824218 1.43359,-1.824218 0.95313,0 1.70703,0.808594 1.70703,2.113281 0,1.683594 -0.94531,1.882813 -1.35156,1.882813"
           id="path2289"
           inkscape:connector-curvature="0" />
      </g>
      <g
         clip-path="url(#clip28)"
         id="g2291"
         style="clip-rule:nonzero">
        <path
           style="fill:#211e1e;fill-opacity:1;fill-rule:nonzero;stroke:none"
           d="m 125.95313,71.386719 c 0,0.535156 0,0.996093 -0.0312,1.242187 -0.0195,0.167969 -0.0508,0.296875 -0.16797,0.316406 -0.0508,0.01563 -0.1211,0.02734 -0.20703,0.02734 -0.0703,0 -0.0977,0.01563 -0.0977,0.04297 0,0.04297 0.043,0.05859 0.12109,0.05859 0.23047,0 0.59766,-0.01563 0.70703,-0.01563 0.0898,0 0.51954,0.01563 0.85938,0.01563 0.0742,0 0.11328,-0.01563 0.11328,-0.05859 0,-0.02734 -0.0234,-0.04297 -0.0703,-0.04297 -0.0664,0 -0.19531,-0.01172 -0.28125,-0.02734 -0.17578,-0.01953 -0.21094,-0.148437 -0.23047,-0.316406 -0.0273,-0.246094 -0.0273,-0.707031 -0.0273,-1.25 l 0,-0.08203 c 0,-0.03516 0.0156,-0.04297 0.0469,-0.04297 l 0.50391,0.0078 c 0.043,0 0.0781,0.0078 0.10547,0.04297 0.0781,0.08984 0.34375,0.484374 0.57812,0.804687 0.32422,0.449219 0.54687,0.722656 0.79687,0.855469 0.15235,0.08203 0.29688,0.109375 0.625,0.109375 l 0.55079,0 c 0.0703,0 0.11328,-0.01172 0.11328,-0.05859 0,-0.02734 -0.0234,-0.04297 -0.0703,-0.04297 -0.0469,0 -0.0977,-0.0078 -0.16406,-0.01953 -0.0859,-0.01563 -0.32422,-0.05859 -0.65234,-0.394531 -0.34375,-0.363282 -0.7461,-0.882813 -1.26563,-1.53125 0.58985,-0.480469 0.76953,-0.875 0.76953,-1.304688 0,-0.390625 -0.23046,-0.6875 -0.39453,-0.800781 -0.3125,-0.214844 -0.70703,-0.25 -1.07031,-0.25 -0.18359,0 -0.625,0.01953 -0.82422,0.01953 -0.12109,0 -0.48828,-0.01953 -0.79687,-0.01953 -0.0859,0 -0.12891,0.01172 -0.12891,0.05469 0,0.03906 0.0352,0.05078 0.10156,0.05078 0.082,0 0.17969,0.0039 0.22657,0.01563 0.1914,0.04297 0.23828,0.136719 0.25,0.332031 0.0117,0.1875 0.0117,0.351562 0.0117,1.234375 z m 0.6875,-2.335938 c 0,-0.04687 0.0117,-0.07031 0.0508,-0.08203 0.0586,-0.01563 0.16406,-0.02344 0.30859,-0.02344 0.34375,0 0.89063,0.238282 0.89063,1.066407 0,0.476562 -0.16797,0.746093 -0.34375,0.875 -0.10547,0.07422 -0.17969,0.09766 -0.41016,0.09766 -0.14844,0 -0.32031,-0.01563 -0.44531,-0.05859 -0.0391,-0.01563 -0.0508,-0.03906 -0.0508,-0.105469 z m 0,0"
           id="path2293"
           inkscape:connector-curvature="0" />
      </g>
      <g
         clip-path="url(#clip29)"
         id="g2295"
         style="clip-rule:nonzero">
        <path
           style="fill:#211e1e;fill-opacity:1;fill-rule:nonzero;stroke:none"
           d="m 132.46094,71.554688 c 0.0312,0 0.0469,0.01172 0.0625,0.04297 l 0.46484,1.234375 c 0.0273,0.07031 -0.0117,0.121094 -0.0547,0.132813 -0.0586,0.0078 -0.082,0.01563 -0.082,0.05078 0,0.04297 0.0703,0.04297 0.17578,0.04687 0.46875,0.01172 0.89063,0.01172 1.10157,0.01172 0.21484,0 0.26953,-0.01172 0.26953,-0.05859 0,-0.03906 -0.0312,-0.04297 -0.0781,-0.04297 -0.0703,0 -0.15625,-0.0078 -0.24609,-0.02344 -0.1211,-0.03125 -0.28906,-0.113281 -0.51172,-0.636719 -0.37109,-0.886719 -1.30469,-3.261719 -1.44531,-3.582031 -0.0547,-0.132813 -0.0898,-0.1875 -0.14453,-0.1875 -0.0586,0 -0.0937,0.06641 -0.16016,0.234375 l -1.46484,3.65625 c -0.11719,0.292968 -0.22657,0.492187 -0.49219,0.523437 -0.0508,0.0078 -0.12891,0.01563 -0.1836,0.01563 -0.0469,0 -0.0703,0.0078 -0.0703,0.04297 0,0.04687 0.0352,0.05859 0.11328,0.05859 0.30078,0 0.6211,-0.01563 0.6875,-0.01563 0.17969,0 0.42969,0.01563 0.61719,0.01563 0.0625,0 0.0977,-0.01172 0.0977,-0.05859 0,-0.03516 -0.0156,-0.04297 -0.0859,-0.04297 l -0.0898,0 c -0.17969,0 -0.23047,-0.07813 -0.23047,-0.183594 0,-0.07031 0.0273,-0.207031 0.0859,-0.355468 l 0.31641,-0.832032 c 0.008,-0.03516 0.0234,-0.04687 0.0508,-0.04687 z m -1.17969,-0.289063 c -0.0234,0 -0.0273,-0.01953 -0.0234,-0.04297 l 0.53516,-1.429687 c 0.004,-0.02734 0.0195,-0.05469 0.0352,-0.05469 0.0195,0 0.0234,0.02734 0.0312,0.05469 l 0.52344,1.4375 c 0.004,0.01563 0,0.03516 -0.0312,0.03516 z m 0,0"
           id="path2297"
           inkscape:connector-curvature="0" />
      </g>
      <path
         style="fill:#211e1e;fill-opacity:1;fill-rule:nonzero;stroke:none"
         d="m 100.75781,67.339844 c 0.0625,0 0.0898,-0.01172 0.0977,-0.03516 l 0.0703,-0.210938 c 0.0156,-0.03906 -0.0117,-0.05859 -0.0703,-0.05859 l -2.097658,0 c -0.05859,0 -0.08594,0.01172 -0.09766,0.05469 l -0.07031,0.207031 c -0.0078,0.03125 0.01172,0.04297 0.07031,0.04297 z m 0,0"
         id="path2299"
         inkscape:connector-curvature="0" />
    </g>
  </g>
</svg>
